<svg xmlns="http://www.w3.org/2000/svg" width="99.866" height="100" viewBox="0 0 99.866 100">
  <g id="Group_1863" data-name="Group 1863" transform="translate(805 -348)">
    <g id="Group_1843" data-name="Group 1843" transform="translate(-805 348)">
      <g id="Group_1828" data-name="Group 1828" transform="translate(0 0)">
        <path id="Path_3153" data-name="Path 3153" d="M99.866,50A49.933,49.933,0,1,1,50,0,49.933,49.933,0,0,1,99.866,50Z" transform="translate(0 0)" fill="#d3d4c5"/>
      </g>
      <g id="Group_1829" data-name="Group 1829" transform="translate(16.448 74.672)">
        <path id="Path_3155" data-name="Path 3155" d="M20.825,57.2,12.6,69.6a50.083,50.083,0,0,0,65.664,1.045L71.213,57.2Z" transform="translate(-12.6 -57.2)" fill="#017d8d"/>
      </g>
      <g id="Group_1842" data-name="Group 1842" transform="translate(21.539 8.876)">
        <g id="Group_1841" data-name="Group 1841" transform="translate(0 0)">
          <g id="Group_1839" data-name="Group 1839">
            <g id="Group_1830" data-name="Group 1830" transform="translate(10.052 60.959)">
              <path id="Path_3156" data-name="Path 3156" d="M55.53,55.2c2.872,1.3,5.221,2.872,5.221,4.568,0,3.525-8.225,6.266-18.275,6.266S24.2,63.162,24.2,59.768c0-1.174,2.089-1.7,3.655-2.61.915-.521.783-1.566,1.957-1.957a43.05,43.05,0,0,1,12.663-1.7C47.7,53.5,52.4,53.764,55.53,55.2Z" transform="translate(-24.2 -53.497)" fill="#026168"/>
            </g>
            <g id="Group_1838" data-name="Group 1838">
              <path id="Path_3157" data-name="Path 3157" d="M48.448,69.92H32V45.9H48.318Z" transform="translate(-11.765 5.143)" fill="#e8c9aa"/>
              <g id="Group_1832" data-name="Group 1832" transform="translate(6.787 6.006)">
                <g id="Group_1831" data-name="Group 1831" transform="translate(0 25.064)">
                  <path id="Path_3158" data-name="Path 3158" d="M56.184,36.344c0,3.134-1.306,5.744-2.742,5.744-1.566,0-2.742-2.61-2.742-5.744S52.005,30.6,53.441,30.6,56.184,33.21,56.184,36.344Z" transform="translate(-12.842 -30.6)" fill="#fcd8b0"/>
                  <path id="Path_3159" data-name="Path 3159" d="M27.184,36.344c0,3.134-1.306,5.744-2.742,5.744-1.566,0-2.742-2.61-2.742-5.744S23.005,30.6,24.441,30.6C26.009,30.6,27.184,33.21,27.184,36.344Z" transform="translate(-21.699 -30.6)" fill="#fcd8b0"/>
                </g>
                <path id="Path_3160" data-name="Path 3160" d="M43.656,11.4H42.35C29.291,11.4,22.9,26.544,22.9,35.943S29.949,65.054,43,65.316h0c12.925-.262,19.973-19.973,19.973-29.373S56.711,11.4,43.656,11.4Z" transform="translate(-21.332 -11.4)" fill="#fcd8b0"/>
              </g>
              <g id="Group_1834" data-name="Group 1834" transform="translate(8.305 29.676)">
                <g id="Group_1833" data-name="Group 1833" transform="translate(0 0)">
                  <path id="Path_3161" data-name="Path 3161" d="M62.986,30.664h0c0-.13,0-.13-.13-.13h0a36.9,36.9,0,0,0-12.533-.653c-3.795.4-6.136,1.566-7.31,1.566-1.306,0-3.525-1.174-7.44-1.7A40.6,40.6,0,0,0,23.04,30.4h0l-.13.13h0a10.946,10.946,0,0,0,0,2.089v.13c0,.13.13.4.262.4h0c.4.13.915.783,1.566,3.795.262,1.566.653,4.7,3.264,5.744,1.174.4,7.18,1.306,10.186-1.566a14.267,14.267,0,0,0,1.957-3.264c.4-.915,1.306-3.525,1.436-3.917.262-.653.653-1.174,1.306-1.174h.262c.653,0,1.045.4,1.306,1.174.13.4,1.045,3,1.436,3.917a10.768,10.768,0,0,0,1.957,3.264c3,2.872,9.008,1.957,10.186,1.566,2.742-1.045,3-4.178,3.264-5.744.653-3,1.174-3.655,1.566-3.795h0c.13-.13.262-.262.262-.4v-.13C63.116,31.973,62.986,30.928,62.986,30.664Zm-24.667,8.1a4.662,4.662,0,0,1-2.872,2.872,11.894,11.894,0,0,1-6.391.4,3.779,3.779,0,0,1-3-2.872,13.112,13.112,0,0,1-.521-5.483,3.365,3.365,0,0,1,2.071-2.612,16.035,16.035,0,0,1,8.225-.262c1.174.262,3.134.521,3.655,2.219C40.141,34.713,39.1,37.194,38.319,38.76Zm21.539.4a3.779,3.779,0,0,1-3,2.872,11.894,11.894,0,0,1-6.391-.4A4.981,4.981,0,0,1,47.6,38.76a10.256,10.256,0,0,1-1.306-5.874c.521-1.7,2.481-1.957,3.655-2.219a17.487,17.487,0,0,1,8.225.262,3.365,3.365,0,0,1,2.089,2.61,11.636,11.636,0,0,1-.409,5.612Z" transform="translate(-22.86 -29.534)" fill="#494949"/>
                </g>
              </g>
              <g id="Group_1835" data-name="Group 1835" transform="translate(9.292 41.244)">
                <path id="Path_3162" data-name="Path 3162" d="M61.582,38.794c-.521-1.174-1.828.521-2.61,1.436-.915,1.045-1.306,2.089-2.349,3.134-2.742,2.742-6.136,5.091-9.138,7.572a7.722,7.722,0,0,1-9.661,0,104.19,104.19,0,0,1-9.138-7.572c-.915-1.045-1.436-2.089-2.349-3.134-.783-.915-1.957-2.61-2.61-1.436-.521,1.174.915,3.264,2.349,5.612,1.566,2.61,2.349,5.874,3.917,8.485.653,1.045,1.436,2.219,2.089,3.264.521.783,1.306,1.566,1.828,2.349a20.085,20.085,0,0,0,1.045,2.481c1.045,1.306,2.219.653,3.525.521a40.2,40.2,0,0,1,4.047-.13h0c1.306,0,2.742,0,4.047.13s2.481.653,3.525-.521c.653-.653.653-1.7,1.045-2.481.521-.915,1.306-1.566,1.828-2.349a22.784,22.784,0,0,0,2.089-3.264c1.436-2.61,2.349-5.874,3.917-8.485C60.669,41.926,62.105,39.838,61.582,38.794Z" transform="translate(-23.617 -38.394)" fill="#494949"/>
              </g>
              <g id="Group_1837" data-name="Group 1837">
                <path id="Path_3163" data-name="Path 3163" d="M73.424,27.58c0,3.917-12.793,7.18-28.458,7.18S16.5,31.5,16.5,27.58,29.293,20.4,44.958,20.4,73.424,23.534,73.424,27.58Z" transform="translate(-16.5 -2.646)" fill="#fcb315"/>
                <path id="Path_3164" data-name="Path 3164" d="M49.764,6.8c-3.264,0-3.525,2.089-6.791,2.089S39.448,6.8,36.182,6.8C28.483,6.8,23,27.688,23,27.688a3.765,3.765,0,0,0,3.917,3.4l14.491,2.081h3l14.491-2.089a3.6,3.6,0,0,0,3.917-3.4S57.464,6.8,49.764,6.8Z" transform="translate(-14.515 -6.8)" fill="#fcb315"/>
                <g id="Group_1836" data-name="Group 1836" transform="translate(8.344 18.016)">
                  <path id="Path_3165" data-name="Path 3165" d="M63.109,24.395A20.468,20.468,0,0,0,62.065,20.6a35.63,35.63,0,0,1-19.058,5.221h0A34.514,34.514,0,0,1,23.948,20.6,20.468,20.468,0,0,0,22.9,24.395c-.13.915.783,1.828,1.828,2.481a35.153,35.153,0,0,0,18.016,4.83h.262a34.791,34.791,0,0,0,18.016-4.83C62.326,26.212,63.241,25.43,63.109,24.395Z" transform="translate(-22.891 -20.6)" fill="#494949"/>
                </g>
              </g>
            </g>
            <path id="Path_3166" data-name="Path 3166" d="M42.912,71.118A20.688,20.688,0,0,0,62.623,56.628l-6.791-1.7a13.676,13.676,0,0,1-25.841-.13L23.2,56.5A20.522,20.522,0,0,0,42.912,71.118Z" transform="translate(-14.454 7.862)" fill="#8bc4c6"/>
          </g>
          <g id="Group_1840" data-name="Group 1840" transform="translate(3.264 64.489)">
            <path id="Path_3167" data-name="Path 3167" d="M63.908,56.2a20.652,20.652,0,0,1-39.425,0L19,57.636V76.043a50.179,50.179,0,0,0,25.194,6.791,49.462,49.462,0,0,0,25.194-6.791V57.506Z" transform="translate(-19 -56.2)" fill="#017d8d"/>
          </g>
        </g>
      </g>
    </g>
    <g id="Group_1852" data-name="Group 1852" transform="translate(-769.158 389.499)">
      <g id="Group_1845" data-name="Group 1845" transform="translate(0 0)">
        <g id="Group_1844" data-name="Group 1844">
          <path id="Path_3168" data-name="Path 3168" d="M34.952,35.851a1.128,1.128,0,0,0,.4-.783A4.618,4.618,0,0,0,31.7,31.8a5.315,5.315,0,0,0-4.047,1.436,1.414,1.414,0,0,0,0,1.436C29.469,37.155,34.952,35.851,34.952,35.851Z" transform="translate(-27.454 -31.79)" fill="#373c3d"/>
        </g>
      </g>
      <g id="Group_1848" data-name="Group 1848" transform="translate(0.184 0.528)">
        <g id="Group_1847" data-name="Group 1847" transform="translate(0 0)">
          <g id="Group_1846" data-name="Group 1846">
            <path id="Path_3169" data-name="Path 3169" d="M27.6,34.291c.783,3.4,7.833,2.089,7.572,1.306s-.915-3.264-3.525-3.4S27.47,33.638,27.6,34.291Z" transform="translate(-27.596 -32.194)" fill="#fff"/>
          </g>
        </g>
      </g>
      <g id="Group_1849" data-name="Group 1849" transform="translate(1.885 0.655)">
        <path id="Path_3170" data-name="Path 3170" d="M28.9,34.133a2.286,2.286,0,1,0,4.57.13,2.161,2.161,0,0,0-.653-1.566,2.784,2.784,0,0,0-1.566-.4H30.077A2.047,2.047,0,0,0,28.9,34.133Z" transform="translate(-28.9 -32.295)" fill="#494949"/>
      </g>
      <g id="Group_1851" data-name="Group 1851" transform="translate(3.451 1.84)">
        <g id="Group_1850" data-name="Group 1850">
          <path id="Path_3171" data-name="Path 3171" d="M30.1,33.853a.653.653,0,1,0,.653-.653A.7.7,0,0,0,30.1,33.853Z" transform="translate(-30.1 -33.2)" fill="#373c3d"/>
          <path id="Path_3172" data-name="Path 3172" d="M30.4,33.662a.262.262,0,1,0,.262-.262.282.282,0,0,0-.262.262Z" transform="translate(-30.009 -33.138)" fill="#fff"/>
        </g>
      </g>
    </g>
    <g id="Group_1861" data-name="Group 1861" transform="translate(-748.214 389.505)">
      <g id="Group_1854" data-name="Group 1854" transform="translate(0 0)">
        <g id="Group_1853" data-name="Group 1853">
          <path id="Path_3173" data-name="Path 3173" d="M43.9,35.848a1.128,1.128,0,0,1-.4-.783,4.618,4.618,0,0,1,3.655-3.258A5.315,5.315,0,0,1,51.2,33.243a1.414,1.414,0,0,1,0,1.436C49.374,37.152,43.9,35.848,43.9,35.848Z" transform="translate(-43.5 -31.793)" fill="#373c3d"/>
        </g>
      </g>
      <g id="Group_1857" data-name="Group 1857" transform="translate(0.253 0.522)">
        <g id="Group_1856" data-name="Group 1856" transform="translate(0 0)">
          <g id="Group_1855" data-name="Group 1855">
            <path id="Path_3174" data-name="Path 3174" d="M51.273,34.291c-.783,3.4-7.833,2.089-7.572,1.306s.915-3.264,3.525-3.4S51.4,33.638,51.273,34.291Z" transform="translate(-43.694 -32.194)" fill="#fff"/>
          </g>
        </g>
      </g>
      <g id="Group_1858" data-name="Group 1858" transform="translate(1.566 0.649)">
        <path id="Path_3175" data-name="Path 3175" d="M49.138,34.133a2.4,2.4,0,0,1-2.219,2.349A2.2,2.2,0,0,1,44.7,34.263a2.161,2.161,0,0,1,.653-1.566,2.784,2.784,0,0,1,1.566-.4H48.1A1.939,1.939,0,0,1,49.138,34.133Z" transform="translate(-44.7 -32.295)" fill="#494949"/>
      </g>
      <g id="Group_1860" data-name="Group 1860" transform="translate(3.264 1.834)">
        <g id="Group_1859" data-name="Group 1859">
          <path id="Path_3176" data-name="Path 3176" d="M47.306,33.853a.653.653,0,1,1-.653-.653.839.839,0,0,1,.653.653Z" transform="translate(-46 -33.2)" fill="#373c3d"/>
          <path id="Path_3177" data-name="Path 3177" d="M46.722,33.662a.262.262,0,1,1-.262-.262.282.282,0,0,1,.262.262Z" transform="translate(-45.939 -33.138)" fill="#fff"/>
        </g>
      </g>
    </g>
    <g id="Group_1862" data-name="Group 1862" transform="translate(-760.484 407.38)">
      <path id="Path_3178" data-name="Path 3178" d="M34.1,45.6c2.219,3.264,3.264,2.872,5.483,2.872,2.349-.13,3.264.653,5.483-2.872a24.028,24.028,0,0,1-5.353.653A20.043,20.043,0,0,1,34.1,45.6Z" transform="translate(-34.1 -45.452)" fill="#e66b5b"/>
      <path id="Path_3179" data-name="Path 3179" d="M41.671,45.5c-1.174.13-1.306.521-1.957.521a13.244,13.244,0,0,1-2.349-.521,20.406,20.406,0,0,0-3.264.13A23.956,23.956,0,0,0,39.584,46.8a26.526,26.526,0,0,0,5.483-1.045A19.757,19.757,0,0,0,41.671,45.5Z" transform="translate(-34.099 -45.482)" fill="#c1544c"/>
    </g>
    <path id="Path_3180" data-name="Path 3180" d="M49.487,46.752a7.75,7.75,0,0,0-3-4.047,7.558,7.558,0,0,0-5.612-.521.987.987,0,0,0-.521.13.987.987,0,0,1-.521-.13,7.558,7.558,0,0,0-5.612.521,7.122,7.122,0,0,0-3,4.047c-.4,1.828.783,4.961,3.134,3.917.262-.13,0,0,.13-.13v-.262a5.872,5.872,0,0,1,5.221-6.006h1.045a5.792,5.792,0,0,1,5.221,6.006v.262c.13.13,0,.13.13.13C48.826,51.717,49.878,48.579,49.487,46.752Z" transform="translate(-795.48 360.776)" fill="#494949"/>
    <path id="Path_3181" data-name="Path 3181" d="M42.5,40.963a1.4,1.4,0,0,0-.915-.262,1.1,1.1,0,0,0-.783.262h-.13a3.711,3.711,0,0,1-1.566.521h-.13a3.212,3.212,0,0,1-1.436-.521h-.13a1.856,1.856,0,0,0-.783-.262,1.608,1.608,0,0,0-.915.262c0,.13-.13.262,0,.4.13.262.4.262.653.262a3.244,3.244,0,0,0,1.045-.13,2.8,2.8,0,0,0,1.566.521h.13a3.266,3.266,0,0,0,1.7-.521,3.244,3.244,0,0,0,1.045.13c.262,0,.521,0,.653-.262Q42.5,41.159,42.5,40.963Z" transform="translate(-794.108 360.429)" fill="#ba9374"/>
  </g>
</svg>
