<svg xmlns="http://www.w3.org/2000/svg" width="99.878" height="100" viewBox="0 0 99.878 100">
  <g id="comment-user-4" transform="translate(0.002)">
    <g id="Group_1940" data-name="Group 1940" transform="translate(-0.002 0)">
      <path id="Path_3212" data-name="Path 3212" d="M99.869,50A49.934,49.934,0,1,1,50,0a49.934,49.934,0,0,1,49.87,50Z" transform="translate(0.006 0)" fill="#e66b5b"/>
      <g id="Group_1939" data-name="Group 1939" transform="translate(0 0)">
        <g id="Group_1937" data-name="Group 1937" transform="translate(35.123 49.608)">
          <g id="Group_1935" data-name="Group 1935" transform="translate(0 5.874)">
            <rect id="Rectangle_6753" data-name="Rectangle 6753" width="26.11" height="4.83" transform="translate(1.828 8.486)" fill="#d3d3d3"/>
            <path id="Path_3214" data-name="Path 3214" d="M48.15,66.52l-16.318.13L31.7,42.5H48.018Z" transform="translate(-25.434 -42.5)" fill="#e8c9aa"/>
            <g id="Group_1934" data-name="Group 1934" transform="translate(0 19.19)">
              <g id="Group_1933" data-name="Group 1933">
                <rect id="Rectangle_6754" data-name="Rectangle 6754" width="32.638" height="17.232" fill="#fff"/>
              </g>
            </g>
          </g>
          <g id="Group_1936" data-name="Group 1936" transform="translate(17.884)">
            <path id="Path_3215" data-name="Path 3215" d="M40.565,38Z" transform="translate(-40.565 -38)" fill="#b78e65"/>
          </g>
        </g>
        <g id="Group_1938" data-name="Group 1938" transform="translate(0 0)">
          <path id="Path_3216" data-name="Path 3216" d="M50,0A49.98,49.98,0,0,0,24.676,93.08v-6l-.13-.13.13-.13V75.456l7.7-2.61,5.484-4.96,7.31,20.888,1.174,3.134L47.39,81.072H45.954L42.692,74.8h14.49l-3.264,6.266H52.612l.914,9.138,8.356-22.318,5.484,4.96,7.964,2.742V93.08A50.03,50.03,0,0,0,50,0Z" transform="translate(0.002 0)" fill="none"/>
          <path id="Path_3217" data-name="Path 3217" d="M55.3,55.7l6.266,5.614-4.178,4.438,5.874,4.178L39.5,82.854a49.484,49.484,0,0,0,23.89-6.92V58.442Z" transform="translate(12.071 17.016)" fill="#444241"/>
          <path id="Path_3218" data-name="Path 3218" d="M20.466,61.284,26.6,55.8l-7.7,2.61V69.9l5.744-4.178Z" transform="translate(5.779 17.046)" fill="#444241"/>
          <path id="Path_3219" data-name="Path 3219" d="M18.9,72.7a50.69,50.69,0,0,0,22.846,6.8L18.9,66.7Z" transform="translate(5.779 20.376)" fill="#444241"/>
          <path id="Path_3220" data-name="Path 3220" d="M42.622,63.566h1.306L47.19,57.3H32.7l3.264,6.266H37.4L36.356,74.4c.914,2.61,1.958,5.352,2.742,7.964h.784L43.536,72.7Z" transform="translate(9.995 17.504)" fill="#e66b5b"/>
          <path id="Path_3221" data-name="Path 3221" d="M35.6,70.5h0l2.742,7.964h0C37.428,75.722,36.514,72.98,35.6,70.5Z" transform="translate(10.881 21.536)" fill="#e66b5b"/>
          <path id="Path_3222" data-name="Path 3222" d="M18.8,66.73h.13V66.6Z" transform="translate(5.749 20.346)" fill="#2c2c2c"/>
          <path id="Path_3223" data-name="Path 3223" d="M32.216,52l-5.484,4.96-6.266,5.484,4.178,4.438L18.9,70.93v.13l22.846,12.8h1.566ZM63.678,66.882l4.178-4.438L61.59,56.83,56.1,52,47.752,74.454,44.1,84.114h1.566L69.422,71.2Z" transform="translate(5.779 15.886)" fill="#2c2c2c"/>
        </g>
        <path id="Path_3224" data-name="Path 3224" d="M28.82,49,41.874,59.836,26.6,66.494Z" transform="translate(8.131 14.968)" fill="#fff"/>
        <path id="Path_3225" data-name="Path 3225" d="M51.354,49,38.3,59.836l15.666,6.92Z" transform="translate(11.705 14.968)" fill="#fff"/>
      </g>
    </g>
    <g id="Group_1964" data-name="Group 1964" transform="translate(28.986 6.136)">
      <g id="Group_1963" data-name="Group 1963" transform="translate(0)">
        <path id="Path_3226" data-name="Path 3226" d="M64.5,29.244c0,13.578-9.4,24.544-21.148,24.544C31.731,53.788,22.2,42.822,22.2,29.244S31.6,4.7,43.347,4.7C54.967,4.7,64.5,15.666,64.5,29.244Z" transform="translate(-22.201 -4.7)" fill="#fcb315"/>
        <path id="Path_3227" data-name="Path 3227" d="M59.825,33.374c0,13.708-3.916,24.674-17.362,24.674-12.924,0-17.362-11.1-17.362-24.674C25.1,19.666,32.931,8.7,42.461,8.7,52.123,8.7,59.825,19.8,59.825,33.374Z" transform="translate(-21.315 -3.478)" fill="#f9e0cd"/>
        <g id="Group_1941" data-name="Group 1941" transform="translate(0.776 28.192)">
          <path id="Path_3228" data-name="Path 3228" d="M29.461,33.22c0,3.786-1.436,6.92-3.264,6.92s-3.4-3.134-3.4-6.92,1.436-6.92,3.264-6.92C27.9,26.172,29.461,29.3,29.461,33.22Z" transform="translate(-22.797 -26.296)" fill="#f9e0cd"/>
          <path id="Path_3229" data-name="Path 3229" d="M55.658,33.22c0,3.786-1.436,6.92-3.264,6.92S49,37.006,49,33.22s1.436-6.92,3.264-6.92C54.092,26.172,55.658,29.3,55.658,33.22Z" transform="translate(-14.79 -26.296)" fill="#f9e0cd"/>
        </g>
        <path id="Path_3230" data-name="Path 3230" d="M42.923,35.962a1.6,1.6,0,0,0-.914-.262,1.886,1.886,0,0,0-.914.262h-.13a3.018,3.018,0,0,1-3.4,0h-.122a1.886,1.886,0,0,0-.914-.262c-.13,0-.784,0-.914.262,0,.13-.13.262,0,.4.13.262.4.262.652.262a2.384,2.384,0,0,0,1.174-.262,4.25,4.25,0,0,0,1.828.522h0a3.358,3.358,0,0,0,1.828-.652,6.623,6.623,0,0,0,1.174.262c.262,0,.522,0,.652-.262C43.053,36.222,43.053,36.1,42.923,35.962Z" transform="translate(-18.121 4.77)" fill="#b28967"/>
        <path id="Path_3231" data-name="Path 3231" d="M58.114,35.609c0,2.61-1.958,7.442-4.7,7.442-3.264,0-4.96-4.438-11.358-4.438S33.964,43.055,30.7,43.055c-2.742,0-4.7-4.83-4.7-7.442s.13,6.658.13,6.658c0,6.266,3.4,9,9,11.228a22.346,22.346,0,0,0,13.708,0c5.614-2.22,9-4.83,9-11.228C58.114,42.267,58.114,33,58.114,35.609Z" transform="translate(-21.042 4.601)" fill="#fcb315"/>
        <g id="Group_1942" data-name="Group 1942" transform="translate(2.737 0.652)">
          <path id="Path_3232" data-name="Path 3232" d="M42.7,14.86c16.84,0,15.926,8.356,17.886,18.016a24.023,24.023,0,0,0,.522-5.352C61.115,15.252,52.9,5.2,42.7,5.2S24.3,15.122,24.3,27.524a24.024,24.024,0,0,0,.522,5.352C26.781,23.216,26,14.86,42.7,14.86Z" transform="translate(-24.299 -5.2)" fill="#fcb315"/>
        </g>
        <g id="Group_1943" data-name="Group 1943" transform="translate(3.492 5.835)">
          <path id="Path_3233" data-name="Path 3233" d="M55.642,17.823c-9.66-6.658-17.886,2.872-22.324,6,.914-1.306,6.136-9.138,6.136-9.138-3.134,1.566-9.66,8.746-9.66,8.746l.13-4.438L26.4,21.623s1.7-12.272,9.66-12.4a73.4,73.4,0,0,1,10.7.4A14.292,14.292,0,0,1,52.9,12.757Z" transform="translate(-24.41 -9.177)" fill="#fcb315"/>
          <path id="Path_3234" data-name="Path 3234" d="M34.424,14.064s-9.8,10.836-9.4,16.84A27.27,27.27,0,0,1,28.81,13.8l10.052-3Z" transform="translate(-24.862 -8.671)" fill="#fcb315"/>
        </g>
        <g id="Group_1952" data-name="Group 1952" transform="translate(24.93 24.354)">
          <g id="Group_1945" data-name="Group 1945" transform="translate(0.916 2.901)">
            <g id="Group_1944" data-name="Group 1944" transform="translate(0 0)">
              <path id="Path_3235" data-name="Path 3235" d="M42.262,29.266A1.856,1.856,0,0,1,42,28.482a3.918,3.918,0,0,1,3.4-2.864,4.024,4.024,0,0,1,3.656,1.436,1.186,1.186,0,0,1,0,1.306C47.352,30.44,42.262,29.266,42.262,29.266Z" transform="translate(-42 -25.582)" fill="#373c3d"/>
            </g>
          </g>
          <g id="Group_1948" data-name="Group 1948" transform="translate(0 0)">
            <path id="Path_3236" data-name="Path 3236" d="M51.614,25.246a4.134,4.134,0,0,0-2.872-1.828c-1.828-.262-7.572.262-7.442,1.958,0,.4,1.306-.262,1.828-.4C43.65,24.718,48.742,22.89,51.614,25.246Z" transform="translate(-41.298 -23.354)" fill="#fcb315"/>
            <g id="Group_1947" data-name="Group 1947" transform="translate(1.039 3.314)">
              <g id="Group_1946" data-name="Group 1946" transform="translate(0 0)">
                <path id="Path_3237" data-name="Path 3237" d="M49.022,27.729c-.652,3.134-7.18,1.828-6.92,1.174s.914-2.872,3.264-3S49.152,27.207,49.022,27.729Z" transform="translate(-42.094 -25.895)" fill="#fff"/>
              </g>
            </g>
          </g>
          <g id="Group_1949" data-name="Group 1949" transform="translate(2.352 3.441)">
            <path id="Path_3238" data-name="Path 3238" d="M47.146,27.7a2.024,2.024,0,1,1-4.046.13,2.1,2.1,0,0,1,.652-1.436,2.346,2.346,0,0,1,1.436-.4h1.044a1.874,1.874,0,0,1,.914,1.706Z" transform="translate(-43.1 -25.994)" fill="#017d8d"/>
          </g>
          <g id="Group_1951" data-name="Group 1951" transform="translate(3.66 4.495)">
            <g id="Group_1950" data-name="Group 1950" transform="translate(0 0)">
              <path id="Path_3239" data-name="Path 3239" d="M45.4,27.453a.652.652,0,1,1-.652-.652.616.616,0,0,1,.652.652Z" transform="translate(-44.101 -26.799)" fill="#373c3d"/>
              <path id="Path_3240" data-name="Path 3240" d="M44.923,27.262a.262.262,0,1,1-.26-.262.28.28,0,0,1,.26.262Z" transform="translate(-44.011 -26.737)" fill="#fff"/>
            </g>
          </g>
        </g>
        <g id="Group_1961" data-name="Group 1961" transform="translate(6.786 24.354)">
          <g id="Group_1954" data-name="Group 1954" transform="translate(1.886 3.035)">
            <g id="Group_1953" data-name="Group 1953" transform="translate(0 0)">
              <path id="Path_3241" data-name="Path 3241" d="M35.967,29.234a.844.844,0,0,0,.262-.652,3.918,3.918,0,0,0-3.4-2.872,4.458,4.458,0,0,0-3.786,1.436,1.186,1.186,0,0,0,0,1.306C30.877,30.408,35.967,29.234,35.967,29.234Z" transform="translate(-28.847 -25.684)" fill="#373c3d"/>
            </g>
          </g>
          <g id="Group_1957" data-name="Group 1957" transform="translate(0 0)">
            <path id="Path_3242" data-name="Path 3242" d="M27.4,25.246a4.134,4.134,0,0,1,2.872-1.828c1.828-.262,7.572.262,7.442,1.958,0,.4-1.306-.262-1.828-.4C35.232,24.718,30.272,22.89,27.4,25.246Z" transform="translate(-27.4 -23.354)" fill="#fcb315"/>
            <g id="Group_1956" data-name="Group 1956" transform="translate(2.215 3.314)">
              <g id="Group_1955" data-name="Group 1955" transform="translate(0 0)">
                <path id="Path_3243" data-name="Path 3243" d="M29.1,27.729c.652,3.134,7.18,1.828,6.92,1.174s-.914-2.872-3.264-3S28.97,27.207,29.1,27.729Z" transform="translate(-29.096 -25.895)" fill="#fff"/>
              </g>
            </g>
          </g>
          <g id="Group_1958" data-name="Group 1958" transform="translate(3.914 3.449)">
            <path id="Path_3244" data-name="Path 3244" d="M30.4,27.7a2.025,2.025,0,1,0,4.048.13A2.1,2.1,0,0,0,33.8,26.4a2.346,2.346,0,0,0-1.436-.4H31.321a1.874,1.874,0,0,0-.92,1.7Z" transform="translate(-30.399 -25.998)" fill="#017d8d"/>
          </g>
          <g id="Group_1960" data-name="Group 1960" transform="translate(5.221 4.495)">
            <g id="Group_1959" data-name="Group 1959" transform="translate(0 0)">
              <path id="Path_3245" data-name="Path 3245" d="M31.4,27.453a.652.652,0,1,0,.652-.652.616.616,0,0,0-.652.652Z" transform="translate(-31.399 -26.799)" fill="#373c3d"/>
              <path id="Path_3246" data-name="Path 3246" d="M31.7,27.262A.262.262,0,1,0,31.962,27a.28.28,0,0,0-.262.262Z" transform="translate(-31.307 -26.737)" fill="#fff"/>
            </g>
          </g>
        </g>
        <path id="Path_3247" data-name="Path 3247" d="M54.224,27.432s-1.044-11.488-8.486-12.4-.914-4.832-.914-4.832l8.356,7.442Z" transform="translate(-16.096 -3.02)" fill="#fcb315"/>
        <g id="Group_1962" data-name="Group 1962" transform="translate(16.056 46.344)">
          <path id="Path_3248" data-name="Path 3248" d="M34.6,40.2c1.958,3.656,3,3.4,5.092,3.524,2.22-.262,3.134.4,5.092-3.524a9.894,9.894,0,0,1-4.96,1.436A9.768,9.768,0,0,1,34.6,40.2Z" transform="translate(-34.47 -40.2)" fill="#e66b5b"/>
          <path id="Path_3249" data-name="Path 3249" d="M41.55,40.722c-1.174.262-1.174.522-1.828.522a12.454,12.454,0,0,1-2.222-.522c-.914-.13-3-.522-3-.522a12.248,12.248,0,0,0,5.092,1.958,12.618,12.618,0,0,0,5.092-1.828,19.8,19.8,0,0,0-3.134.392Z" transform="translate(-34.5 -40.2)" fill="#c1544c"/>
        </g>
      </g>
    </g>
  </g>
</svg>
