<svg xmlns="http://www.w3.org/2000/svg" width="100" height="100" viewBox="0 0 100 100">
  <g id="comment-user-3" transform="translate(0)">
    <g id="Group_1873" data-name="Group 1873" transform="translate(0 0)">
      <g id="Group_1866" data-name="Group 1866">
        <path id="Path_3182" data-name="Path 3182" d="M100,50.066A50,50,0,1,1,50.066,0,50,50,0,0,1,100,50.066Z" transform="translate(0 0)" fill="#8bc4c6"/>
      </g>
      <g id="Group_1872" data-name="Group 1872" transform="translate(19.084 43.53)">
        <g id="Group_1871" data-name="Group 1871" transform="translate(17.254)">
          <g id="Group_1870" data-name="Group 1870">
            <path id="Path_3184" data-name="Path 3184" d="M29.63,53.3H53.29l3.66,4.444L43.878,66.9l-14.9-3.138L27.8,55.392Z" transform="translate(-27.8 -27.156)" fill="#026168"/>
            <g id="Group_1868" data-name="Group 1868" transform="translate(5.36)">
              <g id="Group_1867" data-name="Group 1867">
                <path id="Path_3185" data-name="Path 3185" d="M38.2,34.7Z" transform="translate(-29.964 -32.87)" fill="#00baff"/>
                <path id="Path_3186" data-name="Path 3186" d="M38.2,33.3Z" transform="translate(-29.964 -33.3)" fill="#2500df"/>
                <path id="Path_3187" data-name="Path 3187" d="M48.5,68.252H32.03L31.9,44.2H48.37Z" transform="translate(-31.9 -29.952)" fill="#e8c9aa"/>
              </g>
            </g>
            <g id="Group_1869" data-name="Group 1869" transform="translate(24.836 26.144)">
              <path id="Path_3188" data-name="Path 3188" d="M46.8,54.6Z" transform="translate(-46.8 -52.9)" fill="#27bdc8"/>
              <path id="Path_3189" data-name="Path 3189" d="M47.3,53.3Z" transform="translate(-46.646 -53.3)" fill="#27bdc8"/>
            </g>
          </g>
        </g>
        <path id="Path_3190" data-name="Path 3190" d="M54.08,55.03a10.518,10.518,0,0,1-5.62,4.052h0a15.906,15.906,0,0,1-5.62,1.046,18.436,18.436,0,0,1-5.36-.916h0A13.464,13.464,0,0,1,33.426,57a5.714,5.714,0,0,1-2.352-3.8h0A6.368,6.368,0,0,0,33.426,57,41.07,41.07,0,0,0,23.1,79.6a50.1,50.1,0,0,0,39.478,0A40.9,40.9,0,0,0,52.25,57a5.24,5.24,0,0,0,1.83-1.97Z" transform="translate(-11.988 -27.186)" fill="#fcb315"/>
        <path id="Path_3191" data-name="Path 3191" d="M33.684,53.3h0c-4.968,2.222-11.5,5.228-13.334,5.882a6.354,6.354,0,0,0-4.706,6.144L14.6,72.9a46.416,46.416,0,0,0,11.242,6.666,40.35,40.35,0,0,1,10.2-22.614A5.766,5.766,0,0,1,33.684,53.3Z" transform="translate(-14.6 -27.156)" fill="#017d8d"/>
        <path id="Path_3192" data-name="Path 3192" d="M61.16,59.182c-1.83-.654-8.366-3.53-13.334-5.882h0v.13c0,.13-.13.4-.13.522v.262L47.3,55h0a7.974,7.974,0,0,1-1.7,1.96A41.07,41.07,0,0,1,55.922,79.572,51.03,51.03,0,0,0,67.172,72.9l-1.046-7.582a6.678,6.678,0,0,0-4.966-6.136Z" transform="translate(-5.082 -27.156)" fill="#017d8d"/>
      </g>
    </g>
    <g id="Group_1885" data-name="Group 1885" transform="translate(25.668 7.844)">
      <path id="Path_3193" data-name="Path 3193" d="M61.585,48.5a23.062,23.062,0,0,1-18.432,9.8A23.44,23.44,0,0,1,24.069,47.712C20.671,42.88,29.691,10.2,43.155,10.2S65.377,43.4,61.585,48.5Z" transform="translate(-18.494 -4.71)" fill="#ad4b44"/>
      <path id="Path_3194" data-name="Path 3194" d="M60.648,35.068c0,13.726-11.242,27.844-17.908,27.844-6.8,0-18.04-14.118-18.04-27.844S32.412,10.1,42.74,10.1C52.936,10.23,60.648,21.342,60.648,35.068Z" transform="translate(-18.08 -4.74)" fill="#f9dfc5"/>
      <g id="Group_1876" data-name="Group 1876" transform="translate(9.496 30.07)">
        <g id="Group_1875" data-name="Group 1875">
          <path id="Path_3195" data-name="Path 3195" d="M39.188,34.632s-1.96-5.1-6.536-5.228c-4.968-.262-5.752,3.138-5.752,3.138a6.042,6.042,0,0,0,5.882,3.4A17.188,17.188,0,0,0,39.188,34.632Z" transform="translate(-26.9 -28.884)" fill="#fff"/>
          <g id="Group_1874" data-name="Group 1874" transform="translate(2.756 0.276)">
            <path id="Path_3196" data-name="Path 3196" d="M29.124,31.412a3.062,3.062,0,1,0,3.8-2.092,3.112,3.112,0,0,0-3.8,2.092Z" transform="translate(-29.004 -29.208)" fill="#219b86"/>
            <path id="Path_3197" data-name="Path 3197" d="M29.913,31.288a2.236,2.236,0,1,0,2.746-1.568,2.176,2.176,0,0,0-2.746,1.568Z" transform="translate(-28.746 -29.086)" fill="#0f0500"/>
            <path id="Path_3198" data-name="Path 3198" d="M31.412,30.934a.826.826,0,1,0,1.046-.522C31.934,30.28,31.542,30.412,31.412,30.934Z" transform="translate(-28.286 -28.862)" fill="#fff"/>
            <path id="Path_3199" data-name="Path 3199" d="M30.611,30.762c-.13.262,0,.522.262.522s.522-.13.522-.262c.13-.262,0-.522-.262-.522S30.611,30.63,30.611,30.762Z" transform="translate(-28.531 -28.82)" fill="#fff"/>
          </g>
          <path id="Path_3200" data-name="Path 3200" d="M39.188,34.751S36.442,27.431,26.9,32.4C27.684,30.175,35,24.947,39.188,34.751Z" transform="translate(-26.9 -29.003)" fill="#0f0a08"/>
        </g>
      </g>
      <g id="Group_1879" data-name="Group 1879" transform="translate(27.274 30.07)">
        <g id="Group_1878" data-name="Group 1878">
          <path id="Path_3201" data-name="Path 3201" d="M40.5,34.632s1.96-5.1,6.536-5.228c4.968-.262,5.752,3.138,5.752,3.138a6.042,6.042,0,0,1-5.882,3.4,18.072,18.072,0,0,1-6.406-1.31Z" transform="translate(-40.5 -28.885)" fill="#fff"/>
          <g id="Group_1877" data-name="Group 1877" transform="translate(3.407 0.276)">
            <path id="Path_3202" data-name="Path 3202" d="M49.108,31.412a3.062,3.062,0,1,1-3.8-2.092,3.112,3.112,0,0,1,3.8,2.092Z" transform="translate(-43.102 -29.208)" fill="#219b86"/>
            <path id="Path_3203" data-name="Path 3203" d="M48.027,31.281a2.23,2.23,0,1,1-1.047-1.355,2.236,2.236,0,0,1,1.047,1.355Z" transform="translate(-42.936 -29.079)" fill="#0f0500"/>
            <path id="Path_3204" data-name="Path 3204" d="M45.78,30.934a.826.826,0,1,1-1.046-.522C45.258,30.28,45.65,30.412,45.78,30.934Z" transform="translate(-42.781 -28.862)" fill="#fff"/>
            <path id="Path_3205" data-name="Path 3205" d="M46.5,30.762c.13.262,0,.522-.262.522s-.522-.13-.522-.262c-.13-.262,0-.522.262-.522a.68.68,0,0,1,.522.262Z" transform="translate(-42.319 -28.82)" fill="#fff"/>
          </g>
          <path id="Path_3206" data-name="Path 3206" d="M40.5,34.751s2.746-7.32,12.288-2.352C52,30.175,44.814,24.947,40.5,34.751Z" transform="translate(-40.5 -29.003)" fill="#0f0a08"/>
        </g>
      </g>
      <g id="Group_1880" data-name="Group 1880" transform="translate(21.065 45.752)">
        <path id="Path_3207" data-name="Path 3207" d="M42.614,41.262C42.484,41,41.83,41,41.7,41a1.89,1.89,0,0,0-.916.262h-.136a2.614,2.614,0,0,1-3.138,0h-.13c0-.13-.262-.262-.654-.262a1.61,1.61,0,0,0-.916.262c0,.13-.13.262,0,.4.13.262.4.262.654.262a3.248,3.248,0,0,0,1.046-.13,3.27,3.27,0,0,0,1.7.522h0a3.27,3.27,0,0,0,1.7-.522,1.548,1.548,0,0,0,1.046.13c.262,0,.522,0,.654-.262a.246.246,0,0,0,0-.4Z" transform="translate(-35.752 -41)" fill="#cca783"/>
      </g>
      <g id="Group_1884" data-name="Group 1884" transform="translate(20.082 48.5)">
        <path id="Path_3208" data-name="Path 3208" d="M42.736,44H36.2a3.6,3.6,0,0,0,3,2.222A5.288,5.288,0,0,0,42.736,44Z" transform="translate(-34.63 -42.826)" fill="#fff"/>
        <g id="Group_1883" data-name="Group 1883">
          <g id="Group_1881" data-name="Group 1881" transform="translate(0.134 0.613)">
            <path id="Path_3209" data-name="Path 3209" d="M44.119,43.609a1.6,1.6,0,0,0-1.568.522,3.6,3.6,0,0,1-5.882,0,1.6,1.6,0,0,0-1.568-.522,4.912,4.912,0,0,0,4.444,4.706h.262C43.595,48.053,43.987,43.871,44.119,43.609Z" transform="translate(-35.101 -43.569)" fill="#cc5d54"/>
          </g>
          <g id="Group_1882" data-name="Group 1882">
            <path id="Path_3210" data-name="Path 3210" d="M44.151,43.752s-3.138-1.7-4.576.4c-1.83-1.96-4.576-.262-4.576-.4a14.414,14.414,0,0,0,4.576,1.438A14.414,14.414,0,0,0,44.151,43.752Z" transform="translate(-34.999 -43.102)" fill="#e66b5b"/>
          </g>
        </g>
      </g>
      <path id="Path_3211" data-name="Path 3211" d="M44.564,6C24.426,6,12.53,35.934,24.294,50.836a109.438,109.438,0,0,0,7.45,8.1,34.4,34.4,0,0,1-3.8-7.974,14.956,14.956,0,0,1-1.176-6.014c.13-2.222.784-5.62,2.614-7.058a64.066,64.066,0,0,0,14.9-17.516A106.682,106.682,0,0,0,59.316,38.026a10.716,10.716,0,0,1,2.614,7.058A15.414,15.414,0,0,1,60.754,51.1a55.8,55.8,0,0,1-3.8,7.974c2.484-2.614,5.1-5.1,7.45-8.1C75.928,35.934,64.034,6,44.564,6Z" transform="translate(-19.636 -6)" fill="#e66b5b"/>
    </g>
  </g>
</svg>
