<svg xmlns="http://www.w3.org/2000/svg" width="99.998" height="100" viewBox="0 0 99.998 100">
  <g id="Group_1825" data-name="Group 1825" transform="translate(1283 -320)">
    <g id="Group_1799" data-name="Group 1799" transform="translate(-1283 320)">
      <path id="Path_3112" data-name="Path 3112" d="M100,50.065A50,50,0,1,1,50.065,0,50,50,0,0,1,100,50.065Z" transform="translate(0 0)" fill="#faf06f"/>
    </g>
    <g id="Group_1820" data-name="Group 1820" transform="translate(-1263.13 330.066)">
      <rect id="Rectangle_6721" data-name="Rectangle 6721" width="18.824" height="6.406" transform="translate(21.568 64.181)" fill="#494949"/>
      <g id="Group_1800" data-name="Group 1800" transform="translate(20.784 53.593)">
        <path id="Path_3114" data-name="Path 3114" d="M31.1,71.052C32.408,63.6,35.022,56.28,35.022,48.7H47.7c0,7.582,2.614,14.9,3.922,22.352a60.109,60.109,0,0,1-20.522,0Z" transform="translate(-31.1 -48.7)" fill="#e0c6ad"/>
      </g>
      <g id="Group_1801" data-name="Group 1801" transform="translate(0 64.181)">
        <path id="Path_3115" data-name="Path 3115" d="M16.7,66.7Z" transform="translate(-14.74 -53.758)" fill="#42b5b8"/>
        <path id="Path_3116" data-name="Path 3116" d="M31.093,60.4Z" transform="translate(-4.296 -55.694)" fill="#42b5b8"/>
        <path id="Path_3117" data-name="Path 3117" d="M22,72.9Z" transform="translate(-13.112 -51.854)" fill="#42b5b8"/>
        <path id="Path_3118" data-name="Path 3118" d="M42.085,60.4Z" transform="translate(-6.922 -55.694)" fill="#42b5b8"/>
        <path id="Path_3119" data-name="Path 3119" d="M47.294,56.8a5.25,5.25,0,0,1-1.96,3,11,11,0,0,1-3.268,1.7h16.2a83.176,83.176,0,0,0-10.972-4.7Z" transform="translate(-6.903 -56.8)" fill="#fff"/>
        <path id="Path_3120" data-name="Path 3120" d="M39.785,61.5a11,11,0,0,1-3.268-1.7,5.25,5.25,0,0,1-1.96-3c-2.746,1.308-8.236,2.746-12.156,4.706Z" transform="translate(-12.987 -56.797)" fill="#fff"/>
        <path id="Path_3121" data-name="Path 3121" d="M45.719,61.154a13.162,13.162,0,0,1-4.052-.654H24.15a10.91,10.91,0,0,0-3.922,3.138L16.7,68.6H73.039l-.916-2.484a13.638,13.638,0,0,0-5.882-5.62H49.771A13.162,13.162,0,0,1,45.719,61.154Z" transform="translate(-14.74 -55.664)" fill="#494949"/>
        <path id="Path_3122" data-name="Path 3122" d="M15.2,69.414c1.7,1.308,3.66,2.484,5.49,3.66.13.13.262.13.4.262a6.107,6.107,0,0,0,1.308.654l1.568.784H66.571c.4-.13.784-.4,1.176-.522a.48.48,0,0,1,.4-.13,26.312,26.312,0,0,0,3.268-1.83c1.046-.654,2.092-1.438,3.138-2.092l-1.176-3.4H17.16Z" transform="translate(-15.2 -53.728)" fill="#fff"/>
        <path id="Path_3123" data-name="Path 3123" d="M22.262,73.062c.4.13.916.4,1.308.522.784.262,1.568.654,2.222.916a1.858,1.858,0,0,0,.784.262,50.35,50.35,0,0,0,16.6,2.876,48.161,48.161,0,0,0,15.686-2.614c.13,0,.262-.13.4-.13A23.566,23.566,0,0,0,62,73.846a1.858,1.858,0,0,1,.784-.262c.522-.262,1.046-.522,1.7-.784H22C22.13,72.93,22.13,73.062,22.262,73.062Z" transform="translate(-13.112 -51.884)" fill="#494949"/>
      </g>
      <g id="Group_1805" data-name="Group 1805" transform="translate(30.778 15.032)">
        <g id="Group_1804" data-name="Group 1804" transform="translate(0 0)">
          <path id="Path_3124" data-name="Path 3124" d="M43.026,32.674a8.984,8.984,0,0,0-3.4,9.02A12.544,12.544,0,0,0,42.11,46.4c1.438,1.83,3,3.4,4.444,5.228A13.164,13.164,0,0,1,49.3,56.6a6.26,6.26,0,0,1-.262,5.1,2.354,2.354,0,0,0,0,2.092,2.06,2.06,0,0,0,2.614,1.046.982.982,0,0,0,.654-.916,1.846,1.846,0,0,0-.13-1.176,1.388,1.388,0,0,0-1.7-.654.92.92,0,0,0-.522.654.864.864,0,0,0,.13.784c.13.262.262.4.522.4h.262c.13,0-.13-.262-.4-.262-.13-.13-.262-.13-.262-.262a1.178,1.178,0,0,1-.13-.654c0-.262.13-.4.4-.522a1.1,1.1,0,0,1,1.438.522,1.548,1.548,0,0,1,.13,1.046c-.13.4-.262.654-.654.784a1.41,1.41,0,0,1-1.438,0c-1.438-.916-.916-2.222-.522-3.138a12.062,12.062,0,0,0,1.7-6.014,13.588,13.588,0,0,0-3.266-7.984C46.034,45.218,43.55,43,42.9,39.858a9.676,9.676,0,0,1-.13-4.314C43.288,34.5,44.464,31.366,43.026,32.674Z" transform="translate(-38.511 -15.158)" fill="#2c2c2c"/>
          <g id="Group_1803" data-name="Group 1803">
            <g id="Group_1802" data-name="Group 1802">
              <path id="Path_3125" data-name="Path 3125" d="M61.67,46.35A45.459,45.459,0,0,1,55,42.3L41.8,35.5c.13,1.438,5.36,6.536,6.144,7.844a15.365,15.365,0,0,0,5.228,4.836c2.614,1.7,5.228,2.876,7.974,4.444a14.88,14.88,0,0,1,5.62,5.1,9.87,9.87,0,0,1,1.568,8.628c-.522,1.308-1.568,1.176-1.83,1.046a.882.882,0,0,1-.522-.784.864.864,0,0,1,.13-.784,1.306,1.306,0,0,1,.654-.522h.522l.13.13.4.4v-.4h0a.934.934,0,0,0-1.176-.4,1.338,1.338,0,0,0-.784.654h0c-.262.13-.262.522-.262.916a2.032,2.032,0,0,0,.784,1.046,1.5,1.5,0,0,0,1.308.13,1.668,1.668,0,0,0,.916-.654A15.2,15.2,0,0,0,69.779,60.2,17.256,17.256,0,0,0,69,55.1,15.708,15.708,0,0,0,61.67,46.35Z" transform="translate(-37.807 -14.192)" fill="#2c2c2c"/>
              <path id="Path_3126" data-name="Path 3126" d="M43.784,27.828c-3.268,4.444-6.928,11.242-3.922,18.04a20.6,20.6,0,0,0,6.014,7.32c3.138,2.614,6.4,4.706,9.542,7.19a18.7,18.7,0,0,1,6.4,7.712c1.568,3.922,1.96,5.36.916,9.412a3.646,3.646,0,0,0,5.62,4.314,2.482,2.482,0,0,0,1.046-1.96,2.818,2.818,0,0,0-.654-2.222,2.34,2.34,0,0,0-3.4-.262,1.6,1.6,0,0,0-.654,1.308,2.636,2.636,0,0,0,.4,1.438,1.188,1.188,0,0,0,1.046.522h.516c.262-.13-.4-.4-.784-.4-.262-.13-.4-.13-.522-.4a1.824,1.824,0,0,1-.4-1.176,1.614,1.614,0,0,1,.522-1.046,2.18,2.18,0,0,1,2.876.262,2.342,2.342,0,0,1,.522,1.83,2.234,2.234,0,0,1-.916,1.7,3.2,3.2,0,0,1-2.614.654c-3-1.046-2.352-3.66-1.7-5.36a20.166,20.166,0,0,0,1.438-11.634,20.87,20.87,0,0,0-8.1-12.81c-3.922-3.138-9.15-6.014-11.242-11.372a18.526,18.526,0,0,1-1.438-7.844A16.5,16.5,0,0,1,46.514,26.9a44.45,44.45,0,0,1,5.244-7.7,84.2,84.2,0,0,0-7.974,8.628Z" transform="translate(-38.746 -19.2)" fill="#2c2c2c"/>
            </g>
          </g>
        </g>
      </g>
      <path id="Path_3127" data-name="Path 3127" d="M65.559,29.53A21.83,21.83,0,1,1,43.73,7.7a21.83,21.83,0,0,1,21.83,21.83Z" transform="translate(-13.142 -7.7)" fill="#494949"/>
      <g id="Group_1806" data-name="Group 1806" transform="translate(9.072 7.058)">
        <path id="Path_3128" data-name="Path 3128" d="M29.017,35.015c.4,3.53-.784,6.536-2.614,6.8-1.83.13-3.66-2.484-4.184-6.014-.4-3.53.784-6.536,2.614-6.8C26.795,28.745,28.625,31.489,29.017,35.015Z" transform="translate(-22.141 -8.222)" fill="#f9dfc5"/>
        <path id="Path_3129" data-name="Path 3129" d="M56.783,35.666c-.4,3.53-2.222,6.274-4.052,6.144s-3-3.138-2.614-6.666S52.339,28.868,54.169,29,57.175,32.136,56.783,35.666Z" transform="translate(-13.57 -8.217)" fill="#f9dfc5"/>
        <path id="Path_3130" data-name="Path 3130" d="M61.4,40.027c0,12.55-11.372,25.489-18.3,25.489-7.712,0-18.3-12.942-18.3-25.489S29.506,13.1,43.1,13.1C57.871,13.1,61.4,27.48,61.4,40.027Z" transform="translate(-21.324 -13.1)" fill="#f4d2b3"/>
      </g>
      <path id="Path_3131" data-name="Path 3131" d="M57.309,16.141s.4,9.15-27.449,20.4c-5.1,2.746-7.844,12.55-.4,18.692-8.1-2.876-17-33.855,8.366-46.665C43.331,6.6,57.309,16.141,57.309,16.141Z" transform="translate(-13.398 -7.515)" fill="#494949"/>
      <path id="Path_3132" data-name="Path 3132" d="M42.2,21.148S52,34.614,55.8,33.7c3.922-.916,2.614-6.4,2.614-6.4l-5.62-11.9L48.48,13.7Z" transform="translate(-6.907 -5.856)" fill="#494949"/>
      <path id="Path_3133" data-name="Path 3133" d="M42.043,42.451c-.13-.262-.654-.262-.654-.13a1,1,0,0,0-.654.262H40.6a1.96,1.96,0,0,1-2.352,0h-.13c-.13-.13-.4-.13-.654-.262,0,0-.522,0-.654.13a.182.182,0,0,0,0,.262c.13.13.262.13.522.13a1.942,1.942,0,0,0,.784-.13,3.836,3.836,0,0,0,1.308.4h0a3.836,3.836,0,0,0,1.308-.4,1.942,1.942,0,0,0,.784.13.786.786,0,0,0,.522-.13C42.171,42.711,42.171,42.581,42.043,42.451Z" transform="translate(-8.577 2.908)" fill="#cca783"/>
      <g id="Group_1807" data-name="Group 1807" transform="translate(25.619 47.841)">
        <path id="Path_3134" data-name="Path 3134" d="M38.068,44.954c1.046.262,1.438.654,2.092.654.522,0,.654-.4,1.83-.654.654-.13,2.484.4,3.66-.654-2.484,4.314-3.268,4.444-5.49,4.576-2.092,0-3-.522-5.36-4.576C35.062,44.822,37.152,44.822,38.068,44.954Z" transform="translate(-34.8 -44.3)" fill="#e66b5b"/>
      </g>
      <path id="Path_3135" data-name="Path 3135" d="M55.271,31.726a5.2,5.2,0,0,0-4.184-1.83c-2.484.262-9.8,2.352-9.282,4.836.13.522,1.568-.654,2.222-1.046C44.683,33.034,50.821,29.108,55.271,31.726Z" transform="translate(-7.036 -0.879)" fill="#373c3d"/>
      <g id="Group_1813" data-name="Group 1813" transform="translate(35.031 31.115)">
        <g id="Group_1812" data-name="Group 1812" transform="translate(0.234 2.216)">
          <path id="Path_3136" data-name="Path 3136" d="M51.749,35.086c.13.522-1.176,2.092-3.53,2.222-2.484,0-3.138-.4-3.66-.262-.4.13-1.308.262-1.568.4-.262.262-1.176.262-.654-.4a5.694,5.694,0,0,1,4.706-3.53C50.049,33.126,51.621,34.432,51.749,35.086Z" transform="translate(-42.179 -33.126)" fill="#fff"/>
          <g id="Group_1808" data-name="Group 1808" transform="translate(1.854 1.308)">
            <path id="Path_3137" data-name="Path 3137" d="M44.124,36.684a27.028,27.028,0,0,0,3.66.262,3.772,3.772,0,0,0,3.53-2.092.9.9,0,0,0-.4-.654s.522.13.654.522a1.174,1.174,0,0,1-.262,1.176,4.554,4.554,0,0,1-3.4,1.438,12.894,12.894,0,0,1-3-.262,5.664,5.664,0,0,1-.654-.13,1.6,1.6,0,0,1-.654-.262Z" transform="translate(-43.598 -34.2)" fill="#d8c3af"/>
          </g>
          <g id="Group_1811" data-name="Group 1811" transform="translate(3.425 0)">
            <path id="Path_3138" data-name="Path 3138" d="M44.8,35.16a1.9,1.9,0,0,0,1.83,1.96,1.926,1.926,0,0,0,1.96-1.96,1.9,1.9,0,0,0-1.83-1.96A2,2,0,0,0,44.8,35.16Z" transform="translate(-44.799 -33.2)" fill="#017d8d"/>
            <g id="Group_1810" data-name="Group 1810" transform="translate(1.309 1.173)">
              <g id="Group_1809" data-name="Group 1809" transform="translate(0 0)">
                <path id="Path_3139" data-name="Path 3139" d="M45.8,34.623c0,.262.262.654.522.654s.654-.262.654-.522-.262-.654-.522-.654a.6.6,0,0,0-.654.522Z" transform="translate(-45.8 -34.099)" fill="#1e093a"/>
                <path id="Path_3140" data-name="Path 3140" d="M46.1,34.462a.262.262,0,1,0,.262-.262.282.282,0,0,0-.262.262Z" transform="translate(-45.708 -34.067)" fill="#f1f1f1"/>
              </g>
              <path id="Path_3141" data-name="Path 3141" d="M46,34.823h0c.13.13.13,0,.13,0,.13-.13.13-.13-.13,0C46.13,34.693,46,34.693,46,34.823Z" transform="translate(-45.738 -33.906)" fill="#f1f1f1"/>
              <path id="Path_3142" data-name="Path 3142" d="M46.3,34.814h0c.13.13.13,0,.13,0S46.43,34.684,46.3,34.814Z" transform="translate(-45.646 -33.895)" fill="#f1f1f1"/>
            </g>
          </g>
        </g>
        <path id="Path_3143" data-name="Path 3143" d="M42,38.3s3.53-5.36,9.15-3.268a1.8,1.8,0,0,1,.522.4c.13.262.262.916-1.176,1.96h0c-.13,0-.13.13-.262.13a1.33,1.33,0,0,1,1.83.654c-.13-.522-.522-1.046-1.046-1.046l.13-.13a1.3,1.3,0,0,1,1.308.784c-.13-.654-.522-1.046-1.176-.916l.262-.262c1.046-.262,1.568.916,1.568.916-.13-.654-.784-1.308-1.438-1.046.13-.13.13-.262.262-.4h0a1.564,1.564,0,0,1,1.7.916,1.262,1.262,0,0,0-1.7-1.046c0-.13.13-.262.13-.4a1.374,1.374,0,0,1,1.568.522c-.13-.262-.262-.4-.4-.654A2.636,2.636,0,0,0,55.6,33.065a3.582,3.582,0,0,1-3.138,1.96v.13c1.568.13,2.352-1.438,2.352-2.876,0,0-.522,2.614-2.876,2.484-.13,0-.13-.13-.262-.13a2.488,2.488,0,0,0,2.092-3,3.366,3.366,0,0,1-2.092,2.746A2.634,2.634,0,0,0,53.244,31.5a3.584,3.584,0,0,1-1.96,2.746A2.836,2.836,0,0,0,52.33,31.5a3.666,3.666,0,0,1-1.83,2.746h-.13a2.4,2.4,0,0,0,1.046-2.484,3,3,0,0,1-1.568,2.352,2.4,2.4,0,0,0,.654-1.96,2.848,2.848,0,0,1-1.046,1.83H49.32a2.15,2.15,0,0,0,.262-1.308,3.3,3.3,0,0,1-.522,1.176H48.8a2.548,2.548,0,0,0,.13-1.046,1.912,1.912,0,0,1-.4,1.046h-.262a1.938,1.938,0,0,0,.13-.916,2.258,2.258,0,0,1-.262.916h-.4v-.522a1.3,1.3,0,0,1-.13.522H47.36v-.4a1.012,1.012,0,0,1-.13.4h-.524A6.1,6.1,0,0,0,42,38.3ZM52.2,35.551Z" transform="translate(-42 -31.503)" fill="#373c3d"/>
      </g>
      <path id="Path_3144" data-name="Path 3144" d="M25.5,31.726a5.2,5.2,0,0,1,4.184-1.83c2.484.262,9.8,2.352,9.282,4.836-.13.522-1.568-.654-2.222-1.046C35.958,33.034,29.814,29.108,25.5,31.726Z" transform="translate(-12.036 -0.879)" fill="#373c3d"/>
      <g id="Group_1819" data-name="Group 1819" transform="translate(12.918 30.981)">
        <g id="Group_1818" data-name="Group 1818" transform="translate(3.504 2.345)">
          <path id="Path_3145" data-name="Path 3145" d="M28.1,35.086c-.13.522,1.176,2.092,3.53,2.222,2.484,0,3.138-.4,3.66-.262.4.13,1.308.262,1.568.4.262.262,1.176.262.654-.4a5.694,5.694,0,0,0-4.706-3.53C29.668,33.126,28.1,34.432,28.1,35.086Z" transform="translate(-27.658 -33.121)" fill="#fff"/>
          <g id="Group_1814" data-name="Group 1814" transform="translate(0 1.312)">
            <path id="Path_3146" data-name="Path 3146" d="M35.264,36.684a27.029,27.029,0,0,1-3.66.262,3.772,3.772,0,0,1-3.53-2.092.9.9,0,0,1,.4-.654s-.522.13-.654.522a1,1,0,0,0,.4,1.176,4.554,4.554,0,0,0,3.4,1.438,12.894,12.894,0,0,0,3-.262,5.665,5.665,0,0,0,.654-.13,1.6,1.6,0,0,0,.654-.262Z" transform="translate(-27.762 -34.2)" fill="#d8c3af"/>
          </g>
          <g id="Group_1817" data-name="Group 1817" transform="translate(2.531 0)">
            <path id="Path_3147" data-name="Path 3147" d="M33.622,35.162a1.961,1.961,0,1,1-3.922,0,1.9,1.9,0,0,1,1.83-1.96,1.96,1.96,0,0,1,2.092,1.96Z" transform="translate(-29.699 -33.198)" fill="#017d8d"/>
            <g id="Group_1816" data-name="Group 1816" transform="translate(1.439 1.178)">
              <g id="Group_1815" data-name="Group 1815" transform="translate(0 0)">
                <path id="Path_3148" data-name="Path 3148" d="M31.976,34.623c0,.262-.262.654-.522.654s-.654-.262-.654-.522.262-.654.522-.654a.6.6,0,0,1,.654.522Z" transform="translate(-30.8 -34.099)" fill="#1e093a"/>
                <path id="Path_3149" data-name="Path 3149" d="M31.523,34.462a.262.262,0,1,1-.262-.262C31.523,34.2,31.523,34.33,31.523,34.462Z" transform="translate(-30.739 -34.067)" fill="#f1f1f1"/>
              </g>
              <path id="Path_3150" data-name="Path 3150" d="M31.53,34.823h0c-.13.13-.13,0-.13,0C31.4,34.693,31.4,34.693,31.53,34.823Z" transform="translate(-30.616 -33.906)" fill="#f1f1f1"/>
              <path id="Path_3151" data-name="Path 3151" d="M31.343,34.814h0c-.13.13-.13,0-.13,0C31.083,34.814,31.213,34.684,31.343,34.814Z" transform="translate(-30.689 -33.895)" fill="#f1f1f1"/>
            </g>
          </g>
        </g>
        <path id="Path_3152" data-name="Path 3152" d="M34.262,33.883h0a.48.48,0,0,1-.4-.13.456.456,0,0,0-.13-.262v.262H33.47a1.012,1.012,0,0,1-.13-.4v.4h-.262a1.3,1.3,0,0,1-.13-.522v.522h-.4a1.874,1.874,0,0,1-.262-.916,2.224,2.224,0,0,0,.13.916h-.262a5.774,5.774,0,0,1-.4-1.046,2.878,2.878,0,0,0,.13,1.046h-.262a1.814,1.814,0,0,1-.522-1.176,2.15,2.15,0,0,0,.262,1.308h-.13a2.848,2.848,0,0,1-1.046-1.83,2.158,2.158,0,0,0,.654,1.96,2.834,2.834,0,0,1-1.568-2.352,2.508,2.508,0,0,0,1.046,2.484h-.13a3.3,3.3,0,0,1-1.83-2.746A3.078,3.078,0,0,0,29.4,34.147a3.3,3.3,0,0,1-1.83-2.746,2.55,2.55,0,0,0,1.568,2.876,3.366,3.366,0,0,1-2.092-2.746c-.13,1.438.522,3,2.092,3-.13,0-.13.13-.262.13A3.1,3.1,0,0,1,26,32.177c0,1.438.784,3,2.352,2.876l-.13.13a3.816,3.816,0,0,1-3.138-1.96,2.922,2.922,0,0,0,2.352,2.352,1.112,1.112,0,0,0-.4.654,1.374,1.374,0,0,1,1.568-.522c0,.13.13.262.13.4-.784-.4-1.438.262-1.7,1.046a1.564,1.564,0,0,1,1.7-.916h0c.13.13.13.262.262.4-.784-.262-1.308.4-1.438,1.046,0,0,.522-1.176,1.568-.916l.262.262a1.042,1.042,0,0,0-1.176.916,1.3,1.3,0,0,1,1.308-.784l.13.13c-.522,0-.916.4-1.046,1.046a1.268,1.268,0,0,1,1.83-.654c-.13-.262-.13-.262-.262-.262h0C28.868,36.375,29,35.721,29,35.461a1.8,1.8,0,0,1,.522-.4,7.926,7.926,0,0,1,9.19,3.266A5.872,5.872,0,0,0,34.262,33.883ZM28.51,35.583Z" transform="translate(-25.088 -31.401)" fill="#373c3d"/>
      </g>
    </g>
  </g>
</svg>
