<svg xmlns="http://www.w3.org/2000/svg" width="53.878" height="52" viewBox="0 0 53.878 52">
  <g id="Group_3916" data-name="Group 3916" transform="translate(1 1)">
    <path id="Fill-131" d="M-343.061-368.9c-14.272,0-25.939-11.244-25.939-25s11.667-25,25.939-25,25.938,11.245,25.938,25c.113,13.756-11.553,25-25.938,25Zm0-47.38c-12.8,0-23.107,10.044-23.107,22.271s10.421,22.271,23.107,22.271,23.107-10.044,23.107-22.271-10.307-22.271-23.107-22.271Z" transform="translate(369 418.9)" fill="#fff" stroke="#fff" stroke-width="2"/>
    <path id="Fill-132" d="M-337.772-382.1l-9.628-9.28V-408.3h3.058v15.72l8.722,8.406-2.152,2.074" transform="translate(371.866 419.872)" fill="#fff" stroke="#fff" stroke-width="2"/>
  </g>
</svg>
