<svg id="Group_3920" data-name="Group 3920" xmlns="http://www.w3.org/2000/svg" width="76.608" height="50" viewBox="0 0 76.608 50">
  <path id="Path_2033" data-name="Path 2033" d="M39.544,68.51c-13.478,0-24.4-11.188-24.4-24.989s10.926-24.989,24.4-24.989a23,23,0,0,1,16.32,6.521L49.23,31.573a13.893,13.893,0,0,0-9.686-3.9,15.759,15.759,0,0,0,0,31.51A13.248,13.248,0,0,0,53.386,48.441H39.544V39.89h23.07a23.649,23.649,0,0,1,.419,4.1,23.471,23.471,0,0,1-6.429,17.6A22.335,22.335,0,0,1,39.544,68.51Z" transform="translate(-15.14 -18.529)" fill="#fff"/>
  <path id="Path_2034" data-name="Path 2034" d="M50.618,36.442h-6.94v7.106h-6.94V36.442H29.76V29.3h6.978V22.19h6.94V29.3h6.94Z" transform="translate(25.99 -7.897)" fill="#fff"/>
</svg>
