<svg xmlns="http://www.w3.org/2000/svg" width="56.614" height="51" viewBox="0 0 56.614 51">
  <path id="dislike" d="M21.59,49.558a6.8,6.8,0,0,1-1.054-.623l.021.015-.221-.148a2.122,2.122,0,0,1-1.044-1.248l0-.015c-.392-1.45-.746-2.767-1.079-4.093l-.138-.54a16.342,16.342,0,0,1-.508-2.44l-.01-.09a41.12,41.12,0,0,1,2.034-9.123l-.088.288L3.47,31.567H3.414A3.426,3.426,0,0,1-.012,28.141a3.512,3.512,0,0,1,.025-.421l0,.017c0-.077-.008-.165-.008-.254A4.132,4.132,0,0,1,1.88,24.018l.017-.01a4.538,4.538,0,0,1-.786-2.565c0-.119,0-.238.013-.354V21.1c-.01-.1-.015-.223-.015-.344A3.847,3.847,0,0,1,3.489,17.2l.025-.008a4.97,4.97,0,0,1-.629-2.436c0-.1,0-.2.008-.3v.013c-.006-.077-.008-.165-.008-.256a3.969,3.969,0,0,1,1.852-3.359l.017-.01A5.884,5.884,0,0,1,4.287,7.8l0,.027V7.445A3.822,3.822,0,0,1,8.1,3.847c.125,0,.248.006.369.017l-.015,0H30.067a2.614,2.614,0,0,0,.333-.015c.142-.01.292-.021.446-.021h.033a2.354,2.354,0,0,1,.623.083l-.017,0a3.764,3.764,0,0,1,1.027.527l-.01-.008.208.131c.488.3.963.621,1.438.94l.213.15c.273.2.4.283.546.277.5-.01,1-.015,1.5-.021V24.978l.027,1.6c-.94.6-1.807,1.167-2.069,1.384a15.434,15.434,0,0,1-1.09,1.877l.035-.054c-.177.279-.354.552-.517.834l-3.6,6.022c-.167.283-.348.565-.529.848-.342.542-.686,1.084-.969,1.646a1.841,1.841,0,0,0-.185.811,1.709,1.709,0,0,0,.021.275l0-.01.012,6.5a3.177,3.177,0,0,1-1.415,2.238l-.013.008A4.106,4.106,0,0,1,23.705,50h-.194a4.449,4.449,0,0,1-1.94-.463l.025.013ZM37.76,27.143V0H52.38a.683.683,0,0,1,.679.615v0L55.6,26.389c0,.021,0,.044,0,.067a.685.685,0,0,1-.686.686Zm7.552-3.667a.684.684,0,0,0,.683.683h5.232a.686.686,0,1,0,0-1.371H46a.682.682,0,0,0-.683.681Zm-3.9,0a.684.684,0,0,0,.683.683h1.613a.686.686,0,1,0,0-1.371H42.093a.682.682,0,0,0-.681.681ZM39.963,6.806a2.709,2.709,0,1,0,2.709-2.711,2.707,2.707,0,0,0-2.709,2.711Zm1.369,0a1.334,1.334,0,1,1,1.334,1.334,1.335,1.335,0,0,1-1.334-1.334v0Z" transform="translate(56.102 50.5) rotate(180)" stroke="#000" stroke-width="1"/>
</svg>
