<svg id="Group_53" data-name="Group 53" xmlns="http://www.w3.org/2000/svg" width="53.001" height="50" viewBox="0 0 53.001 50">
  <path id="Path_86" data-name="Path 86" d="M16.3,18.1H45.1a1.156,1.156,0,0,0,1.2-1.2V8.3h0a1.156,1.156,0,0,0-1.2-1.2H16.3a1.156,1.156,0,0,0-1.2,1.2h0v8.6a1.29,1.29,0,0,0,1.2,1.2Zm1.3-8.7H44.006v6.2H17.6Z" transform="translate(0 0.001)"/>
  <path id="Path_87" data-name="Path 87" d="M45.2,20.5h-13A1.217,1.217,0,0,0,31,21.7v6.6a1.156,1.156,0,0,0,1.2,1.2h13a1.156,1.156,0,0,0,1.2-1.2V21.8h0a1.241,1.241,0,0,0-1.2-1.3ZM44,27H33.4V23H44Z" transform="translate(0.001 0.001)"/>
  <path id="Path_88" data-name="Path 88" d="M16.3,36H45.2a1.2,1.2,0,1,0,0-2.4H16.3a1.156,1.156,0,0,0-1.2,1.2A1.217,1.217,0,0,0,16.3,36Z" transform="translate(0 -0.001)"/>
  <path id="Path_89" data-name="Path 89" d="M16.3,23H28.2a1.2,1.2,0,1,0,0-2.4H16.3a1.156,1.156,0,0,0-1.2,1.2A1.29,1.29,0,0,0,16.3,23Z" transform="translate(0 0.001)"/>
  <path id="Path_90" data-name="Path 90" d="M51,0H10.6A2.093,2.093,0,0,0,8.5,2v9.1H2a2.005,2.005,0,0,0-2,2H0V43.6A5.967,5.967,0,0,0,1.9,48h0a5.708,5.708,0,0,0,4.4,2H46.7a6.28,6.28,0,0,0,4.4-1.8h0A6.368,6.368,0,0,0,53,43.8V2.1h0A2.029,2.029,0,0,0,51,0ZM8.5,43.7a2.252,2.252,0,0,1-4.5,0V15.213H8.5Zm40.4,0a2.27,2.27,0,0,1-.609,1.6h0a2.27,2.27,0,0,1-1.6.609H12.2a5.382,5.382,0,0,0,.4-2.2V4.1H48.9Z" transform="translate(0 0)"/>
  <path id="Path_91" data-name="Path 91" d="M16.3,42.5H45.2a1.2,1.2,0,1,0,0-2.4H16.3a1.156,1.156,0,0,0-1.2,1.2,1.217,1.217,0,0,0,1.2,1.2Z" transform="translate(0 0.001)"/>
  <path id="Path_92" data-name="Path 92" d="M16.3,29.5H28.2a1.156,1.156,0,0,0,1.2-1.2A1.241,1.241,0,0,0,28.2,27H16.3a1.217,1.217,0,0,0-1.2,1.2A1.39,1.39,0,0,0,16.3,29.5Z" transform="translate(0.001 0)"/>
</svg>
