<svg xmlns="http://www.w3.org/2000/svg" width="62.508" height="51.157" viewBox="0 0 62.508 51.157">
  <path id="Path_9796" data-name="Path 9796" d="M20.258-101.08a12.939,12.939,0,0,1,11.706,6.349,24.1,24.1,0,0,1,3.373,13.1,32.514,32.514,0,0,1-5.06,17.857q-5.06,7.937-15.377,12.7l-1.786-3.571a26.81,26.81,0,0,0,10.615-8.135q4.464-5.556,4.464-11.31a13.19,13.19,0,0,0-.6-4.167,11.3,11.3,0,0,1-7.341,2.579,12.64,12.64,0,0,1-9.028-3.472A12.1,12.1,0,0,1,7.56-88.382a12.271,12.271,0,0,1,3.671-9.028A12.271,12.271,0,0,1,20.258-101.08Zm33.73,0a12.939,12.939,0,0,1,11.706,6.349,24.1,24.1,0,0,1,3.373,13.1,32.514,32.514,0,0,1-5.06,17.857q-5.06,7.937-15.377,12.7l-1.786-3.571a26.81,26.81,0,0,0,10.615-8.135q4.464-5.556,4.464-11.31a13.19,13.19,0,0,0-.6-4.167,11.3,11.3,0,0,1-7.341,2.579,12.64,12.64,0,0,1-9.028-3.472,12.1,12.1,0,0,1-3.671-9.226,12.271,12.271,0,0,1,3.671-9.028A12.271,12.271,0,0,1,53.989-101.08Z" transform="translate(-7.06 101.58)" stroke="#000" stroke-width="1"/>
</svg>
