<svg xmlns="http://www.w3.org/2000/svg" width="58.145" height="51.129" viewBox="0 0 58.145 51.129">
  <path id="Path_2026" data-name="Path 2026" d="M44.523,31.511v2.181l-2.057-.259A32.448,32.448,0,0,1,23.011,23.2L20.3,20.312l-.686,2.107a13.4,13.4,0,0,0,2.527,13.046c1.624,1.848,1.263,2.107-1.552,1a4.568,4.568,0,0,0-1.913-.48A16.688,16.688,0,0,0,20.16,41.9a13.623,13.623,0,0,0,5.595,5.655l1.985,1h-2.2c-2.274,0-2.382,0-2.13.961A12.69,12.69,0,0,0,31.06,56.9l2.527.924-2.2,1.4a21.853,21.853,0,0,1-10.828,3.252,11.327,11.327,0,0,0-3.357.37,30.2,30.2,0,0,0,7.868,3.881A32.528,32.528,0,0,0,51.85,63.48,37.787,37.787,0,0,0,65.457,46.368a48.245,48.245,0,0,0,2.779-13.231,5.211,5.211,0,0,1,2.382-4.731,28.287,28.287,0,0,0,2.851-3.4c.4-.85.361-.85-1.732,0-3.609,1.331-3.97,1.146-2.238-.85a13,13,0,0,0,2.779-4.731,2.1,2.1,0,0,0-1.3.48,21.9,21.9,0,0,1-3.609,1.515l-2.2.739-1.985-1.441a16.262,16.262,0,0,0-3.609-1.959,13.089,13.089,0,0,0-7.219,0,12.656,12.656,0,0,0-7.977,12.714h0Z" transform="translate(-16.022 -17.743)" stroke="#000" stroke-width="1"/>
</svg>
