<svg id="bloomberght" xmlns="http://www.w3.org/2000/svg" width="117.294" height="30" viewBox="0 0 117.294 30">
  <ellipse id="Ellipse_10998" data-name="Ellipse 10998" cx="10.568" cy="10.568" rx="10.568" ry="10.568" transform="translate(91.258 4.427)" fill="#d1d3d4" opacity="0.49"/>
  <g id="Group_2719" data-name="Group 2719" transform="translate(98.399 5.998)">
    <path id="Path_5581" data-name="Path 5581" d="M70,5.1h2.142V7.671h2.142V5.1h2.285v7H74.284V9.384H72.142V12.1H70Z" transform="translate(-69.857 -5.1)"/>
    <path id="Path_5582" data-name="Path 5582" d="M70,13.1v1.714h2v5.427H74.57V14.814h2V13.1Z" transform="translate(-69.857 -1.675)"/>
    <path id="Path_5583" data-name="Path 5583" d="M69.9,12.714V11h6.712v1.714" transform="translate(-69.9 -2.574)" fill="#ed1f24"/>
  </g>
  <g id="Group_2720" data-name="Group 2720" transform="translate(88.853 0)">
    <path id="Path_5584" data-name="Path 5584" d="M68.076,23.708A11.093,11.093,0,0,1,75.931,4.571C82.5,4.571,88.213,10,89.07,15.139a13.134,13.134,0,0,1-5,13.139c5-3.57,9.283-9.426,3.428-20.28,0,0-3.428-6-12.139-6C67.934,1.858,58.794,16.139,68.076,23.708Z" transform="translate(-62.815 -0.429)" fill="#58595b"/>
    <path id="Path_5585" data-name="Path 5585" d="M68.477,24.179s-5.284-4.142-4.142-10.425c1-5.57,6.712-10.425,12-10.425,6.569,0,15.281,7.284,15,12.425a16.824,16.824,0,0,1-6.855,12.71C90.042,25.178,94.9,15.9,88.9,7.184A15.4,15.4,0,0,0,76.189.9a13.209,13.209,0,0,0-12.568,9.711C62.622,15.181,63.193,20.037,68.477,24.179Z" transform="translate(-63.216 -0.9)" fill="#58595b"/>
    <path id="Path_5586" data-name="Path 5586" d="M86.108,27.135a13.65,13.65,0,0,0,3.285-11.711c-.857-5-6.569-10.711-13.139-10.711H76.11A11.5,11.5,0,0,0,64.828,14a11.242,11.242,0,0,0,1.285,7.426,6.047,6.047,0,0,0,.714,1A15.127,15.127,0,0,1,65.4,20.708a9.944,9.944,0,0,1-1.571-3.285A12.5,12.5,0,0,1,63.4,14a13.842,13.842,0,0,1,.428-3.285,18.254,18.254,0,0,1,1.285-3.142,13.742,13.742,0,0,1,2.571-3.142A12.559,12.559,0,0,1,76.253,1h0a14.3,14.3,0,0,1,5.57,1,16.766,16.766,0,0,1,3.856,2.142,18.645,18.645,0,0,1,2.856,3.285h0a14.264,14.264,0,0,1,2.428,11.425,14.723,14.723,0,0,1-2.571,5.713,13.346,13.346,0,0,1-2.285,2.571Z" transform="translate(-63.137 -0.857)" fill="#58595b"/>
  </g>
  <g id="Group_2721" data-name="Group 2721" transform="translate(86.224 2.571)">
    <path id="Path_5587" data-name="Path 5587" d="M84.82,7.413a11.414,11.414,0,0,1,3.142,9.711c-.857,5.57-5.713,9.283-11.568,9.14-5.713-.143-11-4.427-12.71-10.283-1.143-4,.428-10,4.713-13.282-5.284,3.285-10.425,12.282-4,21.279A15.722,15.722,0,0,0,76.251,30.12c8.14.286,12.282-6.284,13.139-9.569A12.119,12.119,0,0,0,84.82,7.413Z" transform="translate(-61.363 -2.7)" fill="#bcbec0"/>
    <path id="Path_5588" data-name="Path 5588" d="M84.574,7.413a11.414,11.414,0,0,1,3.142,9.711c-.857,5.57-5.713,9.283-11.568,9.14-5.713-.143-11-4.427-12.71-10.283-1.143-4,.428-10,4.713-13.282-5.284,3.856-9.283,12.139-2.856,21.137,0,0,3,4.57,10.854,4.856,8.14.286,11.282-4.856,12.139-8.283C89,17.41,89.858,12.126,84.574,7.413Z" transform="translate(-61.116 -2.7)" fill="#bcbec0"/>
    <path id="Path_5589" data-name="Path 5589" d="M76.692,29.421h-.428a15.661,15.661,0,0,1-5.141-1,13.923,13.923,0,0,1-3.713-2.142,12.227,12.227,0,0,1-3-3h0A16.722,16.722,0,0,1,61.7,17.425,11.613,11.613,0,0,1,61.7,12a16.337,16.337,0,0,1,2.571-5.855L66.409,4A13.3,13.3,0,0,0,63.7,15.568,14.1,14.1,0,0,0,76.549,25.993h.286A11.445,11.445,0,0,0,88.4,16.71,10.562,10.562,0,0,0,87.117,9.57,7.973,7.973,0,0,0,86.4,8.427a11.339,11.339,0,0,1,3.142,5.713,13.878,13.878,0,0,1,0,6,13.464,13.464,0,0,1-3.713,6,15.1,15.1,0,0,1-3.713,2.428,17.935,17.935,0,0,1-5.427.857Z" transform="translate(-61.375 -2.143)" fill="#bcbec0"/>
  </g>
  <g id="Group_2722" data-name="Group 2722" transform="translate(0 6.855)">
    <path id="Path_5590" data-name="Path 5590" d="M3.142,7.757H4.856c1.571,0,2.285.571,2.285,1.571,0,.857-.714,1.571-2.142,1.571H3.142ZM1,17.9H5.284c2.285,0,4.57-.857,4.57-3.428a2.818,2.818,0,0,0-2.571-2.856h0a2.785,2.785,0,0,0,2-2.713c0-2.142-1.857-3-3.713-3H1Zm2.142-5.284h2c1.714,0,2.571.428,2.571,1.714,0,1.571-1.571,1.714-2.571,1.714h-2Z" transform="translate(-1 -5.614)" fill="#58595b"/>
    <path id="Path_5591" data-name="Path 5591" d="M8.1,5.7h2V17.982h-2Z" transform="translate(2.04 -5.7)" fill="#58595b"/>
    <path id="Path_5592" data-name="Path 5592" d="M12.5,12.784a2.322,2.322,0,0,1,2.428-2.428,2.407,2.407,0,0,1,2.428,2.428,2.322,2.322,0,0,1-2.428,2.428A2.407,2.407,0,0,1,12.5,12.784Zm-2,0a4.241,4.241,0,0,0,4.427,4.284,4.287,4.287,0,1,0,0-8.569A4.241,4.241,0,0,0,10.5,12.784Z" transform="translate(3.067 -4.501)" fill="#58595b"/>
    <path id="Path_5593" data-name="Path 5593" d="M19.442,12.784a2.322,2.322,0,0,1,2.428-2.428A2.407,2.407,0,0,1,24.3,12.784a2.428,2.428,0,0,1-4.856,0Zm-2.142,0a4.241,4.241,0,0,0,4.427,4.284,4.287,4.287,0,1,0,0-8.569A4.241,4.241,0,0,0,17.3,12.784Z" transform="translate(5.979 -4.501)" fill="#58595b"/>
    <path id="Path_5594" data-name="Path 5594" d="M24.443,8.643H26.3V9.928h0A2.532,2.532,0,0,1,28.727,8.5,2.393,2.393,0,0,1,31.3,10.071,2.907,2.907,0,0,1,34.011,8.5c2.142,0,2.856,1.571,2.856,3.428v4.856h-2v-4.57c0-1-.286-1.857-1.571-1.857s-1.714,1-1.714,2.142v4.427h-2V12.07c0-1-.428-1.714-1.428-1.714a1.832,1.832,0,0,0-1.857,2v4.427h-2V8.643Z" transform="translate(8.976 -4.501)" fill="#58595b"/>
    <path id="Path_5595" data-name="Path 5595" d="M41.155,13.983a2.322,2.322,0,0,1-2.428,2.428A2.407,2.407,0,0,1,36.3,13.983a2.322,2.322,0,0,1,2.428-2.428A2.407,2.407,0,0,1,41.155,13.983Zm-6.855,4h1.857V16.7h0a3.172,3.172,0,0,0,2.856,1.428c2.571,0,4-1.857,4-4.284s-1.571-4.284-3.856-4.284a3.076,3.076,0,0,0-2.713,1.285h0V5.7h-2V17.982Z" transform="translate(13.257 -5.7)" fill="#58595b"/>
    <path id="Path_5596" data-name="Path 5596" d="M43.1,11.928a1.963,1.963,0,0,1,2.142-1.857,1.769,1.769,0,0,1,2,1.857ZM49.383,13.5v-.571c0-2.856-1.571-4.427-3.856-4.427a4.287,4.287,0,1,0,0,8.569A4.3,4.3,0,0,0,48.955,15.5l-1.428-1.143A2.914,2.914,0,0,1,45.384,15.5a2.067,2.067,0,0,1-2.142-2Z" transform="translate(16.169 -4.501)" fill="#58595b"/>
    <path id="Path_5597" data-name="Path 5597" d="M47.8,8.643h2V9.928h0A2.389,2.389,0,0,1,52.227,8.5a1.287,1.287,0,0,1,.714.143v2a2.43,2.43,0,0,0-1-.143,2.013,2.013,0,0,0-2.142,2v4.284h-2Z" transform="translate(19.037 -4.501)" fill="#58595b"/>
    <path id="Path_5598" data-name="Path 5598" d="M55.927,10.357a2.324,2.324,0,0,1,2.428,2.428,2.322,2.322,0,0,1-2.428,2.428A2.292,2.292,0,0,1,53.5,12.927,2.293,2.293,0,0,1,55.927,10.357Zm2.428-1.714V9.928h0A3.172,3.172,0,0,0,55.5,8.5c-2.571,0-4,1.857-4,4.284a3.942,3.942,0,0,0,6.712,3h0v.571c0,1.571-.571,2.713-2.571,2.713a4.246,4.246,0,0,1-2.856-1.143L51.5,19.64a5.854,5.854,0,0,0,4,1.285c3.142,0,4.57-1.857,4.57-4.856V8.643Z" transform="translate(20.621 -4.501)" fill="#58595b"/>
  </g>
</svg>
