<svg id="businessht" xmlns="http://www.w3.org/2000/svg" width="109.195" height="30" viewBox="0 0 109.195 30">
  <g id="Group_2724" data-name="Group 2724" transform="translate(0 6.215)">
    <path id="Path_5612" data-name="Path 5612" d="M1.4,19.991V5.4H3.7a14.792,14.792,0,0,1,2.972.27A3.619,3.619,0,0,1,8.7,7.021a3.312,3.312,0,0,1,.811,2.162A2.723,2.723,0,0,1,9.1,10.669,9.465,9.465,0,0,1,8.02,12.02a3.8,3.8,0,0,1,1.891,1.621,4.082,4.082,0,0,1,.675,2.162,4.554,4.554,0,0,1-.675,2.3A3.438,3.438,0,0,1,8.29,19.585a7.349,7.349,0,0,1-2.7.54H1.4ZM4.1,8.1v3.107h.54A2.173,2.173,0,0,0,6.128,10.8a1.712,1.712,0,0,0,.54-1.216,1.534,1.534,0,0,0-.405-1.081A2.017,2.017,0,0,0,4.913,8.1Zm0,5.539v3.783h.811a4.281,4.281,0,0,0,2.3-.405,1.734,1.734,0,0,0,.54-1.351,1.936,1.936,0,0,0-.675-1.486,3.379,3.379,0,0,0-2.3-.54Z" transform="translate(-1.4 -4.725)" fill="#a71d33"/>
    <path id="Path_5613" data-name="Path 5613" d="M9.3,8.2H12v5.134a7.655,7.655,0,0,0,.27,2.162,2.423,2.423,0,0,0,.675.946,1.456,1.456,0,0,0,1.081.27,2.545,2.545,0,0,0,1.081-.27,2.423,2.423,0,0,0,.675-.946,6.692,6.692,0,0,0,.135-2.026V8.2h2.7v4.593a13.146,13.146,0,0,1-.405,3.918A4.493,4.493,0,0,1,16.6,18.6a5.321,5.321,0,0,1-2.7.675,4.433,4.433,0,0,1-2.837-.811A4.172,4.172,0,0,1,9.57,16.306a11.7,11.7,0,0,1-.27-3.513Z" transform="translate(1.373 -3.742)" fill="#a71d33"/>
    <path id="Path_5614" data-name="Path 5614" d="M24.566,9.756l-1.621,1.621a2.786,2.786,0,0,0-1.891-.946,1.012,1.012,0,0,0-.675.135.7.7,0,0,0-.27.54.5.5,0,0,0,.135.405,8,8,0,0,0,.811.54l.946.54a5.949,5.949,0,0,1,2.162,1.621,3.1,3.1,0,0,1,.54,1.891,3.383,3.383,0,0,1-1.081,2.432,3.806,3.806,0,0,1-2.837.946A4.551,4.551,0,0,1,17,17.592l1.621-1.756a3.642,3.642,0,0,0,1.081.946,2.156,2.156,0,0,0,1.081.405,1.142,1.142,0,0,0,.811-.27.539.539,0,0,0,.27-.54q0-.608-1.216-1.216l-.946-.405c-1.756-.811-2.567-2.026-2.567-3.242a2.688,2.688,0,0,1,.946-2.162A5.562,5.562,0,0,1,20.918,8a5.421,5.421,0,0,1,2.026.405A7.837,7.837,0,0,1,24.566,9.756Z" transform="translate(4.075 -3.812)" fill="#a71d33"/>
    <path id="Path_5615" data-name="Path 5615" d="M24.956,4.9a1.317,1.317,0,0,1,1.216.54,1.65,1.65,0,0,1,.54,1.216,1.317,1.317,0,0,1-.54,1.216,1.317,1.317,0,0,1-1.216.54,1.317,1.317,0,0,1-1.216-.54,1.65,1.65,0,0,1-.54-1.216,1.317,1.317,0,0,1,.54-1.216A1.712,1.712,0,0,1,24.956,4.9ZM23.605,9.358h2.7V20.166h-2.7Z" transform="translate(6.251 -4.9)" fill="#a71d33"/>
    <path id="Path_5616" data-name="Path 5616" d="M26.7,8.27h2.7V9.351A16.55,16.55,0,0,1,31.023,8.27,6.971,6.971,0,0,1,32.509,8a3.772,3.772,0,0,1,2.7,1.081,3.806,3.806,0,0,1,.946,2.837v7.16h-2.7V14.35a11.077,11.077,0,0,0-.135-2.567c-.135-.405-.27-.811-.54-.946a1.456,1.456,0,0,0-1.081-.27,1.566,1.566,0,0,0-1.351.54,2.669,2.669,0,0,0-.811,1.486,7.826,7.826,0,0,0-.135,2.162v4.323H26.7Z" transform="translate(7.48 -3.812)" fill="#a71d33"/>
    <path id="Path_5617" data-name="Path 5617" d="M46.083,14.485H37.437a3.173,3.173,0,0,0,.946,1.891,3.318,3.318,0,0,0,2.026.675,3.691,3.691,0,0,0,2.567-1.081l2.3,1.081a5.05,5.05,0,0,1-2.026,1.756,6.266,6.266,0,0,1-2.837.54,5.6,5.6,0,0,1-4.188-1.621A5.5,5.5,0,0,1,34.6,13.674a5.5,5.5,0,0,1,1.621-4.053A5.957,5.957,0,0,1,40.274,8a5.6,5.6,0,0,1,4.188,1.621,5.914,5.914,0,0,1,1.621,4.323Zm-2.7-2.162A2.92,2.92,0,0,0,40.409,10.3a3.64,3.64,0,0,0-2.026.675,2.673,2.673,0,0,0-.946,1.351Z" transform="translate(10.253 -3.812)" fill="#a71d33"/>
    <path id="Path_5618" data-name="Path 5618" d="M50.966,9.756l-1.621,1.621a2.786,2.786,0,0,0-1.891-.946,1.012,1.012,0,0,0-.675.135.7.7,0,0,0-.27.54.5.5,0,0,0,.135.405,8,8,0,0,0,.811.54l.946.54a5.949,5.949,0,0,1,2.162,1.621,3.1,3.1,0,0,1,.54,1.891,3.383,3.383,0,0,1-1.081,2.432,3.806,3.806,0,0,1-2.837.946A4.551,4.551,0,0,1,43.4,17.592l1.621-1.756a3.642,3.642,0,0,0,1.081.946,2.156,2.156,0,0,0,1.081.405,1.142,1.142,0,0,0,.811-.27.539.539,0,0,0,.27-.54q0-.608-1.216-1.216l-.946-.405c-1.756-.811-2.567-2.026-2.567-3.242a2.688,2.688,0,0,1,.946-2.162A5.562,5.562,0,0,1,47.318,8a5.421,5.421,0,0,1,2.026.405A5.406,5.406,0,0,1,50.966,9.756Z" transform="translate(13.341 -3.812)" fill="#a71d33"/>
    <path id="Path_5619" data-name="Path 5619" d="M56.966,9.756l-1.621,1.621a2.786,2.786,0,0,0-1.891-.946,1.012,1.012,0,0,0-.675.135.7.7,0,0,0-.27.54.5.5,0,0,0,.135.405,8,8,0,0,0,.811.54l.946.54a5.949,5.949,0,0,1,2.162,1.621,3.1,3.1,0,0,1,.54,1.891,3.383,3.383,0,0,1-1.081,2.432,3.806,3.806,0,0,1-2.837.946A4.551,4.551,0,0,1,49.4,17.592l1.621-1.756a3.642,3.642,0,0,0,1.081.946,2.156,2.156,0,0,0,1.081.405,1.142,1.142,0,0,0,.811-.27.539.539,0,0,0,.27-.54q0-.608-1.216-1.216l-.946-.405c-1.756-.811-2.567-2.026-2.567-3.242a2.688,2.688,0,0,1,.946-2.162A3.7,3.7,0,0,1,53.318,8a5.421,5.421,0,0,1,2.026.405A5.406,5.406,0,0,1,56.966,9.756Z" transform="translate(15.447 -3.812)" fill="#a71d33"/>
  </g>
  <ellipse id="Ellipse_10999" data-name="Ellipse 10999" cx="10.538" cy="10.538" rx="10.538" ry="10.538" transform="translate(83.086 4.593)" fill="#d1d3d4" opacity="0.49"/>
  <g id="Group_2725" data-name="Group 2725" transform="translate(90.246 6.079)">
    <path id="Path_5620" data-name="Path 5620" d="M68.3,4.8h2.162V7.367h2.162V4.8h2.162v7.025H72.623v-2.7H70.462v2.7H68.3Z" transform="translate(-68.165 -4.8)"/>
    <path id="Path_5621" data-name="Path 5621" d="M68.3,13.3v1.756h2.026v5.269h2.432V15.056h2.026V13.3Z" transform="translate(-68.165 -1.817)"/>
    <path id="Path_5622" data-name="Path 5622" d="M68.2,12.756V11h6.62v1.756" transform="translate(-68.2 -2.624)" fill="#a71d33"/>
  </g>
  <g id="Group_2726" data-name="Group 2726" transform="translate(80.654 0)">
    <path id="Path_5623" data-name="Path 5623" d="M66.009,23.251a11.387,11.387,0,0,1-3.377-10A11.146,11.146,0,0,1,73.71,4.067c6.62,0,12.294,5.539,13.1,10.538a13.2,13.2,0,0,1-5,13.1c5-3.648,9.322-9.457,3.377-20.265,0,0-3.377-5.944-12.024-5.944C65.874,1.365,56.822,15.686,66.009,23.251Z" transform="translate(-60.74 0.121)" fill="#58595b"/>
    <path id="Path_5624" data-name="Path 5624" d="M66.362,23.672s-5.269-4.188-4.188-10.4c.946-5.539,6.755-10.4,12.024-10.4,6.62,0,15.266,7.3,15,12.429-.27,6.079-3.783,10.808-6.755,12.7,5.539-3.242,10.538-12.564,4.323-21.346A15.477,15.477,0,0,0,74.063.3,13.088,13.088,0,0,0,61.5,10.027C60.553,14.62,61.093,19.619,66.362,23.672Z" transform="translate(-61.093 -0.3)" fill="#58595b"/>
    <path id="Path_5625" data-name="Path 5625" d="M84.067,26.539a13.871,13.871,0,0,0,3.377-11.754c-.811-5-6.485-10.673-13.24-10.673h-.135a11.324,11.324,0,0,0-11.213,9.322,11.933,11.933,0,0,0,1.216,7.43c.27.405.405.675.675,1.081a9.3,9.3,0,0,1-1.486-1.756,15.545,15.545,0,0,1-1.621-3.377,13.582,13.582,0,0,1-.54-3.377,15.322,15.322,0,0,1,.405-3.377,26.328,26.328,0,0,1,1.351-2.972,11.264,11.264,0,0,1,2.567-3.107A11.98,11.98,0,0,1,74.069.6h0a15.414,15.414,0,0,1,5.539.946,15.962,15.962,0,0,1,3.918,2.162,18.8,18.8,0,0,1,3.107,3.107h0A14.069,14.069,0,0,1,89.065,18.3,14.446,14.446,0,0,1,86.5,23.972a14.947,14.947,0,0,1-2.432,2.567Z" transform="translate(-61.1 -0.195)" fill="#58595b"/>
  </g>
  <g id="Group_2727" data-name="Group 2727" transform="translate(78.117 2.702)">
    <path id="Path_5626" data-name="Path 5626" d="M82.7,6.893a11.514,11.514,0,0,1,3.107,9.727c-.946,5.539-5.674,9.322-11.618,9.187-5.674-.135-10.943-4.323-12.7-10.267-1.216-4.053.405-10,4.728-13.24-5.269,3.377-10.4,12.294-4.053,21.21A15.421,15.421,0,0,0,74.053,29.59,13.067,13.067,0,0,0,87.158,20,12.192,12.192,0,0,0,82.7,6.893Z" transform="translate(-59.222 -2.3)" fill="#bcbec0"/>
    <path id="Path_5627" data-name="Path 5627" d="M82.472,6.893a11.514,11.514,0,0,1,3.107,9.727c-.946,5.539-5.674,9.322-11.618,9.187-5.674-.135-10.943-4.323-12.7-10.267-1.216-4.053.405-10,4.728-13.24C60.721,6.218,56.8,14.459,63.153,23.375c0,0,2.972,4.593,10.808,4.864C82.2,28.509,85.309,23.375,86.12,20,86.8,16.891,87.606,11.622,82.472,6.893Z" transform="translate(-58.995 -2.3)" fill="#bcbec0"/>
    <path id="Path_5628" data-name="Path 5628" d="M74.44,29.134h-.405A13.448,13.448,0,0,1,68.9,28.053a15.86,15.86,0,0,1-3.648-2.026,16.9,16.9,0,0,1-2.972-2.972h0a16.083,16.083,0,0,1-2.7-5.809,12.764,12.764,0,0,1,0-5.539A15.964,15.964,0,0,1,62.146,5.9a10.761,10.761,0,0,1,2.026-2.3c-2.837,3.513-3.783,8.241-2.7,11.483A14.026,14.026,0,0,0,74.3,25.486h.27c5.944,0,10.673-3.783,11.483-9.322A11.059,11.059,0,0,0,84.842,9a5.476,5.476,0,0,1-.675-1.216,12.025,12.025,0,0,1,3.242,5.674,12.774,12.774,0,0,1-.135,6.079,12.635,12.635,0,0,1-3.648,5.944,11.334,11.334,0,0,1-3.783,2.432,12.618,12.618,0,0,1-5.4,1.216Z" transform="translate(-59.203 -1.844)" fill="#bcbec0"/>
  </g>
</svg>
