<svg xmlns="http://www.w3.org/2000/svg" width="68.148" height="28.028" viewBox="0 0 68.148 28.028">
  <g id="ciner-logo" transform="translate(-8.262 -13.7)">
    <g id="Group_2730" data-name="Group 2730" transform="translate(8.262 13.7)">
      <g id="Group_2729" data-name="Group 2729" transform="translate(0 0)">
        <path id="Path_5629" data-name="Path 5629" d="M56.6,49.425h2.42l.6,1.361A4.6,4.6,0,0,1,63.292,49.2c4.84-.076,5.671,3.478,5.671,5.255v9.112H65.674v-9.15a2.645,2.645,0,0,0-2.8-2.5,4.068,4.068,0,0,0-2.949,1.437V63.528H56.6Z" transform="translate(-38.324 -35.776)" fill="#003882"/>
        <g id="Group_2728" data-name="Group 2728" transform="translate(13.096 13.384)">
          <rect id="Rectangle_112" data-name="Rectangle 112" width="3.214" height="9.982" transform="translate(0.227 4.386)" fill="#003882"/>
          <circle id="Ellipse_11000" data-name="Ellipse 11000" cx="1.853" cy="1.853" r="1.853" transform="translate(0 0)" fill="#003882"/>
        </g>
        <path id="Path_5630" data-name="Path 5630" d="M20.186,50.5a6.824,6.824,0,0,0-4.461-1.4,7.97,7.97,0,0,0-5.066,1.7,7.155,7.155,0,0,0-2.382,5.18c-.151,3.327.907,5.255,2.684,6.5a8.841,8.841,0,0,0,4.613,1.248A8.2,8.2,0,0,0,20.3,62.371L19.09,59.8a4.267,4.267,0,0,1-3.819,1.21c-1.7-.189-3.63-.907-3.667-4.386-.038-3.63,2.344-4.764,3.781-4.764a4.633,4.633,0,0,1,3.441,1.1Z" transform="translate(-8.262 -35.716)" fill="#003882"/>
        <path id="Path_5631" data-name="Path 5631" d="M159.993,16.952l-.076-.038a2.052,2.052,0,0,1-.6-1.248,1.876,1.876,0,0,1,1.815-1.966,1.9,1.9,0,0,1,1.815,1.966,2.173,2.173,0,0,1-1.248,1.815s-.113.113.076.151a8.539,8.539,0,0,1,1.248.151,1.92,1.92,0,0,1,1.21.983,5.543,5.543,0,0,1,.34,2.458V24.1a4.4,4.4,0,0,1-.151.983c-.113.265-.227.832-1.437,1.059h-.038v6.352h-3.554V26.1s-1.021-.189-1.285-.681a3.1,3.1,0,0,1-.3-1.512V19.787a2.446,2.446,0,0,1,.718-1.588,2.2,2.2,0,0,1,1.437-.567l.718-.038s.113-.076-.113-.189A2.12,2.12,0,0,1,159.993,16.952Z" transform="translate(-101.261 -13.7)" fill="#003882"/>
        <path id="Path_5632" data-name="Path 5632" d="M179.048,35.2h0a1.13,1.13,0,0,1-.378-.794,1.174,1.174,0,0,1,1.1-1.21,1.15,1.15,0,0,1,1.1,1.21,1.315,1.315,0,0,1-.756,1.1s-.076.076.038.076a2.824,2.824,0,0,1,.756.113,1.246,1.246,0,0,1,.756.6,3.051,3.051,0,0,1,.189,1.475v1.739a2.129,2.129,0,0,1-.076.6c-.076.151-.151.492-.87.643h0v3.857h-2.117V40.762s-.643-.113-.794-.416a1.961,1.961,0,0,1-.189-.907v-2.5a1.514,1.514,0,0,1,.454-.983,1.377,1.377,0,0,1,.87-.34l.416-.038s.076-.038-.076-.113A1.237,1.237,0,0,1,179.048,35.2Z" transform="translate(-113.699 -25.827)" fill="#009959"/>
        <path id="Path_5633" data-name="Path 5633" d="M146.348,18.4h0a1.13,1.13,0,0,1-.378-.794,1.174,1.174,0,0,1,1.1-1.21,1.15,1.15,0,0,1,1.1,1.21,1.315,1.315,0,0,1-.756,1.1s-.076.076.038.076a2.824,2.824,0,0,1,.756.113,1.246,1.246,0,0,1,.756.6,3.051,3.051,0,0,1,.189,1.475v1.739a2.128,2.128,0,0,1-.076.6c-.076.151-.151.492-.87.643h0v3.857h-2.117V23.962s-.643-.113-.794-.416a1.961,1.961,0,0,1-.189-.907v-2.5a1.514,1.514,0,0,1,.454-.983,1.377,1.377,0,0,1,.87-.34l.416-.038s.076-.038-.076-.113A1.236,1.236,0,0,1,146.348,18.4Z" transform="translate(-93.363 -15.379)" fill="#009959"/>
      </g>
      <path id="Path_5634" data-name="Path 5634" d="M96.073,54.957h6.919c0-3.365-3.441-3.1-3.441-3.1A3.723,3.723,0,0,0,96.073,54.957Zm-.113,2.458s0,.076.038.567a3.252,3.252,0,0,0,.34,1.059,3.684,3.684,0,0,0,2.231,1.777c3.516.643,4.84-.983,4.84-.983l1.21,2.571a4.7,4.7,0,0,1-1.437.794s-5.255,1.739-8.507-1.021c-3.214-2.722-1.966-7.826-1.966-7.826a6.934,6.934,0,0,1,6.73-5.255c8.167,0,6.73,8.318,6.73,8.318Z" transform="translate(-60.632 -35.712)" fill="#003882"/>
      <path id="Path_5635" data-name="Path 5635" d="M102,59.492a3.691,3.691,0,0,1,3.478-3.1s3.441-.265,3.441,3.1Z" transform="translate(-66.559 -40.248)" fill="none"/>
      <path id="Path_5636" data-name="Path 5636" d="M134.789,52.369V55.81h1.664s2.079,0,2.042-1.777-2.231-1.777-2.231-1.777h-1.475ZM131.538,49.8h4.991a7.934,7.934,0,0,1,2,.3,3.7,3.7,0,0,1,3.252,3.781,3.549,3.549,0,0,1-1.739,3.365l-.945.492,4.2,6.2h-3.63l-3.743-5.558h-1.1v5.558H131.5V49.8Z" transform="translate(-84.905 -36.149)" fill="#003882"/>
      <path id="Path_5637" data-name="Path 5637" d="M140.2,56.413V56.3h1.475s2.193,0,2.231,1.777-2.042,1.777-2.042,1.777H140.2Z" transform="translate(-90.316 -40.193)" fill="none"/>
    </g>
  </g>
</svg>
