<svg id="google-news" xmlns="http://www.w3.org/2000/svg" width="172.908" height="30" viewBox="0 0 172.908 30">
  <path id="Path_9788" data-name="Path 9788" d="M40.532,23.687V26.9H48.2a6.814,6.814,0,0,1-1.748,4.046,7.861,7.861,0,0,1-5.925,2.348,8.535,8.535,0,0,1,0-17.068,8.159,8.159,0,0,1,5.78,2.3l2.258-2.258A11.088,11.088,0,0,0,40.531,13,11.909,11.909,0,0,0,28.617,24.744,11.909,11.909,0,0,0,40.531,36.488a10.763,10.763,0,0,0,8.2-3.289,10.622,10.622,0,0,0,2.779-7.5,10.317,10.317,0,0,0-.17-2.01h-10.8Z" transform="translate(-28.617 -13)" fill="#4285f4"/>
  <path id="Path_9789" data-name="Path 9789" d="M56.584,19.612a7.581,7.581,0,1,0,7.608,7.581A7.47,7.47,0,0,0,56.584,19.612Zm0,12.174A4.386,4.386,0,0,1,52.3,27.193a4.291,4.291,0,1,1,8.56,0A4.385,4.385,0,0,1,56.584,31.786Z" transform="translate(-24.103 -11.534)" fill="#ea4335"/>
  <path id="Path_9790" data-name="Path 9790" d="M87.762,21.308h-.119a5.257,5.257,0,0,0-3.992-1.7,7.37,7.37,0,0,0-7.086,7.581,7.388,7.388,0,0,0,7.086,7.582,5.175,5.175,0,0,0,3.992-1.723h.117v1.057c0,2.9-1.552,4.451-4.044,4.451a4.205,4.205,0,0,1-3.824-2.7l-2.9,1.2a7.224,7.224,0,0,0,6.721,4.476c3.9,0,7.2-2.3,7.2-7.895V20H87.762ZM83.938,31.786c-2.3,0-4.045-1.957-4.045-4.594,0-2.676,1.747-4.594,4.044-4.594,2.272,0,4.046,1.958,4.046,4.62S86.208,31.786,83.938,31.786Z" transform="translate(-17.987 -11.534)" fill="#4285f4"/>
  <path id="Path_9791" data-name="Path 9791" d="M70.468,19.612a7.581,7.581,0,1,0,7.608,7.581A7.471,7.471,0,0,0,70.468,19.612Zm0,12.174a4.385,4.385,0,0,1-4.28-4.594,4.291,4.291,0,1,1,8.56,0A4.386,4.386,0,0,1,70.468,31.786Z" transform="translate(-21.025 -11.534)" fill="#fbbc05"/>
  <path id="Path_9792" data-name="Path 9792" d="M90.45,13.256h3.275V36.184H90.451Z" transform="translate(-14.909 -12.943)" fill="#34a853"/>
  <path id="Path_9793" data-name="Path 9793" d="M102.774,31.786a3.859,3.859,0,0,1-3.681-2.3l10.14-4.188-.34-.861a7.041,7.041,0,0,0-6.486-4.828c-3.9,0-7.151,3.066-7.151,7.581a7.411,7.411,0,0,0,7.516,7.582,7.566,7.566,0,0,0,6.316-3.354L106.505,29.7a4.343,4.343,0,0,1-3.732,2.089Zm-.236-9.33a3,3,0,0,1,2.871,1.67l-6.851,2.832c0-3.184,2.258-4.5,3.98-4.5Z" transform="translate(-13.843 -11.534)" fill="#ea4335"/>
  <path id="Path_9794" data-name="Path 9794" d="M114.439,35.938V15.157h3.25l10.1,16.167h.116l-.116-4V15.158h2.669V35.939h-2.785L117.108,18.988h-.116l.116,4.006V35.938Zm26.179.464a6.86,6.86,0,0,1-5.239-2.148,7.616,7.616,0,0,1-2.017-5.427,7.822,7.822,0,0,1,1.96-5.34,6.359,6.359,0,0,1,5.007-2.236,6.56,6.56,0,0,1,5.064,2.061,7.818,7.818,0,0,1,1.9,5.515l-.029.494H136.033a4.829,4.829,0,0,0,1.437,3.4,4.356,4.356,0,0,0,3.091,1.246,3.828,3.828,0,0,0,3.889-2.437l2.38.987a6.376,6.376,0,0,1-2.293,2.772,6.656,6.656,0,0,1-3.918,1.117Zm3.831-9.287a3.786,3.786,0,0,0-1.118-2.321,3.989,3.989,0,0,0-3.062-1.1,3.826,3.826,0,0,0-2.568.928,4.748,4.748,0,0,0-1.5,2.5Zm20.839,8.823h-2.728l-3.54-10.912-3.512,10.912h-2.7l-4.585-14.221h2.787l3.164,10.739h.028l3.512-10.739h2.757l3.511,10.739h.029l3.135-10.739h2.728l-4.586,14.221Zm11.61.464a6.388,6.388,0,0,1-3.934-1.161,6.872,6.872,0,0,1-2.277-2.9l2.38-.986a3.934,3.934,0,0,0,3.861,2.669,3.526,3.526,0,0,0,2.046-.551,1.689,1.689,0,0,0,.8-1.451q0-1.393-1.945-1.886l-2.873-.7a6.834,6.834,0,0,1-2.583-1.321,3.183,3.183,0,0,1-1.219-2.627,3.588,3.588,0,0,1,1.669-3.062,6.7,6.7,0,0,1,3.962-1.176,6.6,6.6,0,0,1,3.367.856,4.826,4.826,0,0,1,2.118,2.453l-2.321.958a3.152,3.152,0,0,0-3.251-1.888,3.8,3.8,0,0,0-2,.494,1.506,1.506,0,0,0-.812,1.335q0,1.219,1.886,1.654l2.816.668a5.317,5.317,0,0,1,2.96,1.6,3.849,3.849,0,0,1,.958,2.553,3.958,3.958,0,0,1-1.567,3.194A6.179,6.179,0,0,1,176.9,36.4Z" transform="translate(-9.59 -12.522)" fill="#5f6368"/>
</svg>
