<svg xmlns="http://www.w3.org/2000/svg" width="91.965" height="50" viewBox="0 0 91.965 50">
  <g id="logo_haberturk" transform="translate(-0.035)">
    <rect id="Rectangle_14" data-name="Rectangle 14" width="91.965" height="50" transform="translate(0.035)" fill="#ec1c24"/>
    <path id="Path_10" data-name="Path 10" d="M11.141,8h3.938v4.46h4.3V8h3.955V20.745H19.382V15.59h-4.3v5.156H11.141Z" transform="translate(1.514 1.091)" fill="#fff"/>
    <path id="Path_11" data-name="Path 11" d="M31.075,15.885,29.667,11.3l-1.4,4.582Zm.826,2.756H27.416l-.617,2.1H22.774L27.564,8h4.294l4.79,12.745h-4.12Z" transform="translate(3.101 1.091)" fill="#fff"/>
    <path id="Path_12" data-name="Path 12" d="M39.8,18.008H41.81a2.228,2.228,0,0,0,1.434-.356,1.229,1.229,0,0,0,.417-.974,1.107,1.107,0,0,0-.417-.9,2.268,2.268,0,0,0-1.443-.348h-2ZM39.8,13h1.712a1.968,1.968,0,0,0,1.278-.313,1.163,1.163,0,0,0,.365-.922,1.085,1.085,0,0,0-.365-.869,1.917,1.917,0,0,0-1.252-.313H39.8ZM35.83,8H43.2a4,4,0,0,1,2.825.913,2.95,2.95,0,0,1,.991,2.26,2.853,2.853,0,0,1-.7,1.939,3.137,3.137,0,0,1-1.373.852A3.533,3.533,0,0,1,46.957,15.1a3.088,3.088,0,0,1,.652,2.017,3.478,3.478,0,0,1-.461,1.782,3.392,3.392,0,0,1-1.261,1.252,4.16,4.16,0,0,1-1.5.417,17.22,17.22,0,0,1-1.765.174h-6.8Z" transform="translate(4.881 1.09)" fill="#fff"/>
    <path id="Path_13" data-name="Path 13" d="M47.731,8H58.283v2.722H51.678v2.025h6.128v2.6H51.678v2.513h6.8v2.886H47.731Z" transform="translate(6.504 1.091)" fill="#fff"/>
    <path id="Path_14" data-name="Path 14" d="M62.784,13.165h1.66a5.928,5.928,0,0,0,1.043-.174,1.024,1.024,0,0,0,.635-.4,1.283,1.283,0,0,0-.139-1.687,2.369,2.369,0,0,0-1.469-.33h-1.73Zm-3.955,7.581V8h6.563a9.53,9.53,0,0,1,2.79.313,2.965,2.965,0,0,1,1.556,1.165,3.5,3.5,0,0,1,.591,2.06,3.4,3.4,0,0,1-1.7,3.078,4.758,4.758,0,0,1-1.382.5,3.927,3.927,0,0,1,1.026.469,3.887,3.887,0,0,1,.626.669,4.919,4.919,0,0,1,.556.791l1.9,3.695H66.913l-2.1-3.895a2.972,2.972,0,0,0-.713-.982,1.656,1.656,0,0,0-.965-.3h-.348v5.173Z" transform="translate(8.017 1.09)" fill="#fff"/>
    <path id="Path_15" data-name="Path 15" d="M11.141,24.585H23.126v3.148H19.1v9.6H15.163v-9.6H11.141Z" transform="translate(1.514 3.352)" fill="#fff"/>
    <path id="Path_16" data-name="Path 16" d="M34.7,24.585h3.934v7.6a6.367,6.367,0,0,1-.357,2.139,4.585,4.585,0,0,1-1.105,1.756A4.395,4.395,0,0,1,35.6,37.131a7.963,7.963,0,0,1-2.759.426,17.485,17.485,0,0,1-2.037-.13,5.381,5.381,0,0,1-1.837-.513,4.722,4.722,0,0,1-1.358-1.1,4.058,4.058,0,0,1-.836-1.469,7.608,7.608,0,0,1-.366-2.156v-7.6h3.934v7.781A2.246,2.246,0,0,0,30.912,34a2.177,2.177,0,0,0,1.61.583,2.155,2.155,0,0,0,1.593-.574,2.222,2.222,0,0,0,.583-1.643Z" transform="translate(3.596 3.353)" fill="#fff"/>
    <path id="Path_17" data-name="Path 17" d="M46.608,29.75H48.27a5.94,5.94,0,0,0,1.045-.174,1.025,1.025,0,0,0,.636-.4,1.282,1.282,0,0,0-.139-1.687,2.375,2.375,0,0,0-1.471-.33H46.608Zm-3.961,7.581V24.586h6.572a9.561,9.561,0,0,1,2.794.313,2.969,2.969,0,0,1,1.558,1.165,3.5,3.5,0,0,1,.592,2.06,3.4,3.4,0,0,1-1.7,3.078,4.765,4.765,0,0,1-1.384.5,2.643,2.643,0,0,1,1.654,1.139,4.929,4.929,0,0,1,.557.791L55.2,37.331H50.742l-2.107-3.895a2.971,2.971,0,0,0-.714-.982,1.659,1.659,0,0,0-.966-.3h-.348v5.173Z" transform="translate(5.811 3.352)" fill="#fff"/>
    <path id="Path_18" data-name="Path 18" d="M57.956,24.585H61.9V29.4l4.134-4.817h5.24l-4.648,4.808,4.857,7.937H66.625l-2.69-5.242L61.9,34.218V37.33H57.956Z" transform="translate(7.898 3.352)" fill="#fff"/>
    <rect id="Rectangle_15" data-name="Rectangle 15" width="66.726" height="2.914" transform="translate(12.655 23.354)" fill="#fff"/>
    <rect id="Rectangle_16" data-name="Rectangle 16" width="91.965" height="1.136" transform="translate(0.035 48.864)" opacity="0.2"/>
  </g>
</svg>
