<svg id="Group_2748" data-name="Group 2748" xmlns="http://www.w3.org/2000/svg" width="99.776" height="30" viewBox="0 0 99.776 30">
  <path id="Path_5668" data-name="Path 5668" d="M82.79,35.441l2.586,1.345A6.1,6.1,0,0,1,83.1,38.6a7.825,7.825,0,0,1-3.155.672,5.829,5.829,0,0,1-4.293-1.552A5.5,5.5,0,0,1,74.1,33.631a6.877,6.877,0,0,1,1.966-4.914A6.372,6.372,0,0,1,80.824,26.7a6.275,6.275,0,0,1,3,.724,5.116,5.116,0,0,1,2.069,2.121,6.227,6.227,0,0,1,.776,3.052,11.128,11.128,0,0,1-.1,1.19H76.945a2.762,2.762,0,0,0,.828,1.966,3.1,3.1,0,0,0,2.121.724A4.01,4.01,0,0,0,82.79,35.441Zm.776-3.776a2.931,2.931,0,0,0-1.086-1.655,3.179,3.179,0,0,0-1.862-.569,3.468,3.468,0,0,0-1.914.569,3.23,3.23,0,0,0-1.293,1.655Z" transform="translate(-37.635 -13.407)" fill="#333"/>
  <path id="Path_5669" data-name="Path 5669" d="M100.2,26.962h2.9l-.155,1.293a4.381,4.381,0,0,1,6.207-.672,2.92,2.92,0,0,1,.724,1.19,5.573,5.573,0,0,1,1.914-1.6,5.11,5.11,0,0,1,2.276-.569,3.352,3.352,0,0,1,2.483.983,3.509,3.509,0,0,1,.983,2.586c0,.414-.052.879-.1,1.5l-1.034,7.19h-2.9l.828-6.1a15.9,15.9,0,0,0,.155-1.655,1.936,1.936,0,0,0-.414-1.293,1.461,1.461,0,0,0-1.19-.414,2.509,2.509,0,0,0-1.5.517,3.328,3.328,0,0,0-1.138,1.4,13.145,13.145,0,0,0-.672,3l-.621,4.5h-2.9l.879-6.466c.052-.517.1-.983.1-1.345a1.678,1.678,0,0,0-.466-1.241,1.558,1.558,0,0,0-1.19-.466,2.8,2.8,0,0,0-1.448.466A2.906,2.906,0,0,0,102.79,31.1a9.4,9.4,0,0,0-.621,2.586l-.672,5.121H98.6Z" transform="translate(-49.462 -13.359)" fill="#333"/>
  <path id="Path_5670" data-name="Path 5670" d="M138.624,18.5h2.9L139.3,34.948h-2.9Z" transform="translate(-67.71 -9.448)" fill="#333"/>
  <path id="Path_5671" data-name="Path 5671" d="M156.193,27.01h2.9l-1.655,11.9h-2.9l.155-1.293a7.936,7.936,0,0,1-1.759,1.241,4.433,4.433,0,0,1-1.862.362,4.565,4.565,0,0,1-3.776-1.759,6.174,6.174,0,0,1-1.4-4.034,7.089,7.089,0,0,1,.879-3.362,6.847,6.847,0,0,1,2.379-2.483,6.317,6.317,0,0,1,3.155-.879,3.911,3.911,0,0,1,2.017.517,4.609,4.609,0,0,1,1.552,1.448Zm-4.345,9.621a3.554,3.554,0,0,0,1.862-.466,3.84,3.84,0,0,0,1.345-1.5,4.457,4.457,0,0,0,.569-2.069,3.087,3.087,0,0,0-.828-2.276,2.881,2.881,0,0,0-2.172-.879,3.45,3.45,0,0,0-2.638,1.138,4.151,4.151,0,0,0-1.086,2.948,2.889,2.889,0,0,0,.828,2.224A2.766,2.766,0,0,0,151.848,36.631Z" transform="translate(-72.297 -13.407)" fill="#333"/>
  <path id="Path_5672" data-name="Path 5672" d="M174.424,18.5h2.9l-1.19,8.69,4.655-4.086h3.983l-6,5.276,5.224,6.569h-3.517L175.821,29.1l-.776,5.845H172.2Z" transform="translate(-84.993 -9.448)" fill="#333"/>
  <path id="Path_5673" data-name="Path 5673" d="M53.733,14.007V11.783a.244.244,0,0,0-.259-.259h-1.19a.244.244,0,0,0-.259.259v.828c-.724-.621-1.5-1.19-2.224-1.81-1.241-.983-2.431-1.914-3.621-2.9a.38.38,0,0,0-.31-.1.735.735,0,0,0-.31.1c-2.224,1.759-4.4,3.569-6.621,5.328-1.19.983-2.379,1.914-3.569,2.9a.458.458,0,0,0,.31.776h2.328v2.845c3.466,1.914,6.569,3.621,8.172,4.448h.155A81.573,81.573,0,0,1,54.3,14.472C54.095,14.317,53.94,14.162,53.733,14.007Zm-8.017,3.776h-1.6v-1.6h1.6Zm0-1.966h-1.6v-1.6h1.6Zm1.914,1.966h-1.6v-1.6h1.6Zm0-1.966h-1.6v-1.6h1.6Z" transform="translate(-18.871 -4.283)" fill="#333"/>
  <path id="Path_5674" data-name="Path 5674" d="M67.879,1c-.983,1.138-1.914,2.224-2.793,3.362A146.5,146.5,0,0,0,47.914,31,144.792,144.792,0,0,0,37,16.776c5.483,3.052,10.552,5.793,10.552,5.793s4.966-8.172,16.6-18.414C65.345,3.121,66.535,2.086,67.879,1Z" transform="translate(-19.724 -1)" fill="#ed1c24"/>
  <g id="Group_2733" data-name="Group 2733" transform="translate(0 13.19)">
    <path id="Path_5675" data-name="Path 5675" d="M3.6,26.6H6.29v3.1h3V26.6h2.741v8.845H9.29V31.876h-3v3.569H3.6Z" transform="translate(-3.6 -26.548)" fill="#e91d2c"/>
    <path id="Path_5676" data-name="Path 5676" d="M22.6,26.5h8.431v2.224H28.238V35.5H25.445V28.724H22.6Z" transform="translate(-12.772 -26.5)" fill="#e91d2c"/>
  </g>
</svg>
