<svg id="hthayat" xmlns="http://www.w3.org/2000/svg" width="96.409" height="30" viewBox="0 0 96.409 30">
  <path id="Path_5677" data-name="Path 5677" d="M23,2.7h1.773V5.564h1.364V2.7h1.773v7.5H26.136v-3H24.773v3.136H23V2.7Z" transform="translate(7 0.027)" fill="#6d6d6d"/>
  <path id="Path_5678" data-name="Path 5678" d="M26.9,2.7h5.045V4.064H30.309v6.273H28.673V4.064H26.9V2.7Z" transform="translate(8.418 0.027)" fill="#6d6d6d"/>
  <path id="Path_5679" data-name="Path 5679" d="M31,2.8h1.364v8.864a5.168,5.168,0,0,1,6.955-2.182A5.119,5.119,0,0,1,41.5,12.073a8.182,8.182,0,0,1,.273,3.136v7.227H40.409V14.255A4.127,4.127,0,0,0,38.5,10.436,4.469,4.469,0,0,0,33.182,11.8a3.7,3.7,0,0,0-.818,2.318V22.3H31c0-6.545,0-13.091,0-19.5Z" transform="translate(9.909 0.064)" fill="#6d6d6d"/>
  <path id="Path_5680" data-name="Path 5680" d="M68.345,5.745A9.4,9.4,0,0,0,69.709,5.2c.136.955,0,1.909.136,2.864h3.818V9.155H69.845v8.727a2.7,2.7,0,0,0,1.227,2.591,4.478,4.478,0,0,0,2.318-.136c0,.273.136.682.136.955-1.227.273-2.727.545-3.818-.273a3.794,3.794,0,0,1-1.091-2.864v-9H66.3V8.064h2.318a6.38,6.38,0,0,1-.273-2.318Z" transform="translate(22.746 0.936)" fill="#6e6d6e"/>
  <path id="Path_5681" data-name="Path 5681" d="M48.8,7.4h1.5c1.227,2.864,2.455,5.864,3.545,8.727.409.955.682,1.909,1.091,2.864C56.3,15.036,57.8,11.355,59.3,7.4h1.5c-1.091,2.727-2.318,5.455-3.409,8.318a71.911,71.911,0,0,1-3,6.682A10.213,10.213,0,0,1,51.8,25.673a7.476,7.476,0,0,1-2.045,1.091c-.136-.409-.273-.682-.409-1.091a8.245,8.245,0,0,0,4.636-4.909c.273-.545-.136-1.091-.273-1.636C51.936,15.309,50.436,11.355,48.8,7.4Z" transform="translate(16.382 1.736)" fill="#6e6d6e"/>
  <path id="Path_5682" data-name="Path 5682" d="M50.21,17.4V12.351a6.216,6.216,0,0,0-.682-3.136,4,4,0,0,0-2.455-1.773,7.613,7.613,0,0,0-5.455.955c.136.273.273.682.409.955a6.025,6.025,0,0,1,2.182-.818,4.3,4.3,0,0,1,3.818.682,4.323,4.323,0,0,1,1.091,3.409c-2.318,0-4.909.136-6.818,1.636a4.06,4.06,0,0,0-.682,5.591,3.567,3.567,0,0,0,3,1.227,5.37,5.37,0,0,0,4.5-2.182c0,.682.136,1.227.136,1.909h1.227A14.97,14.97,0,0,1,50.21,17.4Zm-1.364-1.091a3.56,3.56,0,0,1-1.364,2.727,4.647,4.647,0,0,1-3,.955,2.716,2.716,0,0,1-2.455-1.5,2.986,2.986,0,0,1,.409-3,5,5,0,0,1,2.318-1.364,13.917,13.917,0,0,1,4.091-.409Z" transform="translate(13.472 1.694)" fill="#6e6d6e"/>
  <path id="Path_5683" data-name="Path 5683" d="M67.491,18.382v-6a5.38,5.38,0,0,0-.955-3.545A4.323,4.323,0,0,0,63.127,7.2a8.31,8.31,0,0,0-4.364,1.091c.136.273.273.682.409.955a5.306,5.306,0,0,1,3.136-.955,3.831,3.831,0,0,1,2.727.818,3.815,3.815,0,0,1,.955,3.409,11.944,11.944,0,0,0-5.727,1.091,4.134,4.134,0,0,0-2.455,3.136,3.8,3.8,0,0,0,.955,3.136,3.211,3.211,0,0,0,2.864,1.091,5.2,5.2,0,0,0,4.5-2.182A9.208,9.208,0,0,0,66.4,20.7h1.227C67.627,20.018,67.491,19.2,67.491,18.382Zm-2.045,0a4.136,4.136,0,0,1-4.227,1.364,2.5,2.5,0,0,1-1.364-.955,3.331,3.331,0,0,1-.409-2.591,3.079,3.079,0,0,1,1.773-1.909,12.581,12.581,0,0,1,5.045-.682v2.727A4.618,4.618,0,0,1,65.445,18.382Z" transform="translate(19.646 1.664)" fill="#6e6d6e"/>
  <g id="Group_2734" data-name="Group 2734" transform="translate(0 0)">
    <path id="Path_5684" data-name="Path 5684" d="M12.18.7a.82.82,0,0,1,.545.136,9.178,9.178,0,0,1,2.045,1.909,9.809,9.809,0,0,1,1.636,2.864c.136.273-.136.409-.409.545a14.492,14.492,0,0,0-1.5,1.227,2.975,2.975,0,0,1-.682.545L13.68,8.2a.476.476,0,0,0-.273.136,17.509,17.509,0,0,0-2.727,3.545A12.088,12.088,0,0,0,9.589,14.2c-.136-.955-.136-1.636-.273-2.455a22,22,0,0,1,0-3A15.433,15.433,0,0,1,11.5,1.927c.136-.409.545-.818.682-1.227Z" transform="translate(2.002 -0.7)" fill="#c1cf30"/>
    <path id="Path_5685" data-name="Path 5685" d="M20.709,3.773A7.981,7.981,0,0,1,22.482,3.5c.273,0,.273.409.273.545a12.066,12.066,0,0,1-.818,5.864,8.388,8.388,0,0,1-1.773-.136c-3-.273-6.273-.136-8.864,1.364a1.042,1.042,0,0,1,.273-.682A16.94,16.94,0,0,1,15.255,6.5a11.273,11.273,0,0,1,3.955-2.182,4.885,4.885,0,0,1,1.5-.545Z" transform="translate(2.745 0.318)" fill="#f5cd11"/>
    <path id="Path_5686" data-name="Path 5686" d="M3.907,4.281a9.078,9.078,0,0,1,5.045.136,7.688,7.688,0,0,1,1.636.545,20.2,20.2,0,0,0-.409,2.591,15.36,15.36,0,0,0,.273,4.364A18.842,18.842,0,0,0,11.544,15.6a5.527,5.527,0,0,1-1.227-.682A15.4,15.4,0,0,1,4.453,7.009a6.5,6.5,0,0,1-.545-2.727Z" transform="translate(0.047 0.491)" fill="#7ababb"/>
    <path id="Path_5687" data-name="Path 5687" d="M13.2,9.345A25.348,25.348,0,0,1,17.7,8.8a15.317,15.317,0,0,1,9,3.136,7.9,7.9,0,0,1-1.909,2.318,11.148,11.148,0,0,1-2.727,1.636c-.273.136-.545.273-.682,0A17.583,17.583,0,0,0,13.2,9.345Z" transform="translate(3.436 2.245)" fill="#e85a26"/>
    <path id="Path_5688" data-name="Path 5688" d="M2.091,11.691A10.957,10.957,0,0,1,6.182,9.1a18.673,18.673,0,0,0,5.727,5.591,12.088,12.088,0,0,0,2.318,1.091v.273a24.687,24.687,0,0,1-3.136.409A15.741,15.741,0,0,1,1,13.464a3.916,3.916,0,0,1,1.091-1.773Z" transform="translate(-1 2.355)" fill="#1c8ec3"/>
    <path id="Path_5689" data-name="Path 5689" d="M14.6,10.8a16.043,16.043,0,0,1,5.591,5.318,12.355,12.355,0,0,1,2.182,6.136,7.952,7.952,0,0,1-3.136.273,12.8,12.8,0,0,1-3.273-.818c-.273,0-.136-.273-.136-.545.409-3.545.409-7.227-1.227-10.364Z" transform="translate(3.945 2.973)" fill="#e85a26"/>
    <path id="Path_5690" data-name="Path 5690" d="M15.673,14.573a6.85,6.85,0,0,0,.682-1.773,12.608,12.608,0,0,1,.545,3.955A14.268,14.268,0,0,1,13.627,26.3a12.106,12.106,0,0,1-3.409-3.545A7.051,7.051,0,0,1,9.4,20.982a5.773,5.773,0,0,0,.955-.682h0a15.266,15.266,0,0,0,5.318-5.727Z" transform="translate(2.055 3.7)" fill="#bb55a0"/>
    <path id="Path_5691" data-name="Path 5691" d="M8.664,15.7a13.8,13.8,0,0,0,7.364-1.5A15.875,15.875,0,0,1,4.573,21.973a10.7,10.7,0,0,1-.273-3,12.247,12.247,0,0,1,.955-3.682,32.969,32.969,0,0,0,3.409.409Z" transform="translate(0.2 4.209)" fill="#bb55a0"/>
    <path id="Path_5692" data-name="Path 5692" d="M10.2,18.4Z" transform="translate(2.345 5.736)" fill="#6d6d6d"/>
  </g>
</svg>
