<svg id="htkulup_logo" xmlns="http://www.w3.org/2000/svg" width="117.059" height="30" viewBox="0 0 117.059 30">
  <path id="Path_5732" data-name="Path 5732" d="M157.828-13.2l-13.3,11.81h1.222c1.538,0,2.262.679,2.262,1.991a4.241,4.241,0,0,1-.317,1.538l-1.719,4.932h6.742c-.5,1.719-2.081,2.624-4.751,2.624h-5.656c-1.584,0-2.353-.588-2.353-1.719a3.075,3.075,0,0,1,.136-.86L142.262.646,133.8,8.158A5.722,5.722,0,0,1,129.819,9.7H127.1L133.71-9.082H121.9l2.489-4.118h12.851c1.855,0,2.76.679,2.76,2.081a4.918,4.918,0,0,1-.317,1.674L135.746,2.275,152.715-13.2Z" transform="translate(-121.9 13.2)" fill="#62072a"/>
  <path id="Path_5733" data-name="Path 5733" d="M211.529,21.307a3.144,3.144,0,0,1-1.493,2.036,3.717,3.717,0,0,1-1.946.543H201.3c-1.584,0-2.4-.5-2.4-1.538a4.2,4.2,0,0,1-3.439,1.538h-2.851a2.838,2.838,0,0,1-2.036-.679,2.182,2.182,0,0,1-.679-1.674,3.879,3.879,0,0,1,.226-1.222l2.715-7.511h5.928l-3.032,8.462h3.3l3.032-8.462h5.837l-3.032,8.507Z" transform="translate(-159.131 -1.035)" fill="#62072a"/>
  <path id="Path_5734" data-name="Path 5734" d="M249.915,11.014a3.322,3.322,0,0,1-1.855,2.127,5.142,5.142,0,0,1-2.217.5H239.6c-1.584,0-2.4-.543-2.4-1.629a2.681,2.681,0,0,1,.181-.95L243.4-6h5.747l-6.063,17.014Z" transform="translate(-185.028 9.258)" fill="#62072a"/>
  <path id="Path_5735" data-name="Path 5735" d="M286.629,22.949a3.145,3.145,0,0,1-1.493,2.036,3.717,3.717,0,0,1-1.946.543H276.4c-1.584,0-2.4-.5-2.4-1.538a4.2,4.2,0,0,1-3.439,1.538h-2.851a2.838,2.838,0,0,1-2.036-.679A2.182,2.182,0,0,1,265,23.176a3.88,3.88,0,0,1,.226-1.222l2.262-6.154,5.023,3.167L270.837,22.9h3.3l2.127-4.389,5.837-.9L280.068,22.9l6.561.045Z" transform="translate(-200.249 -2.678)" fill="#62072a"/>
  <path id="Path_5736" data-name="Path 5736" d="M330.08,16.653a2.694,2.694,0,0,1-1.312,1.991,4.67,4.67,0,0,1-2.443.633h-8.869a1.832,1.832,0,0,1-2.036-2.081c.5-.226,1-.407,1.493-.588a4.215,4.215,0,0,0,1.629-1.176,3.675,3.675,0,0,0,.769-2.353,2.037,2.037,0,0,0-.814-1.584,2.584,2.584,0,0,0-1.855-.633l-5.113,14.706H305.6L312.93,4.3h5.882l-1.357,3.937A21.035,21.035,0,0,1,322.3,8.6a3.348,3.348,0,0,1,2.76,3.71,4.383,4.383,0,0,1-1.176,2.624A5.314,5.314,0,0,1,321.3,16.7l8.778-.045Z" transform="translate(-222.478 3.619)" fill="#62072a"/>
  <g id="Group_2736" data-name="Group 2736" transform="translate(64.57 1.584)">
    <path id="Path_5737" data-name="Path 5737" d="M280.989,4.687c.407-1.765.86-3.575,1.312-5.339-1.176,1.493-2.353,2.986-3.529,4.57a.257.257,0,0,1-.452-.136C277.912,1.837,277.5-.109,277.1-2.1c-.407,1.946-.814,3.891-1.222,5.882a.269.269,0,0,1-.453.136c-1.176-1.538-2.353-3.077-3.529-4.57.452,1.765.9,3.529,1.312,5.294a.271.271,0,0,1-.362.317q-2.172-.611-4.344-1.086c1.629,1.131,3.213,2.308,4.842,3.575h7.376c1.629-1.222,3.213-2.443,4.842-3.575q-2.172.475-4.344,1.086C281.124,5.095,280.943,4.914,280.989,4.687Z" transform="translate(-266.735 5.539)" fill="#d9a229"/>
    <path id="Path_5738" data-name="Path 5738" d="M284.834-6.759c.317-.226.588-.452.9-.724.317.226.588.452.9.724-.136-.362-.226-.769-.362-1.131.317-.226.588-.452.905-.679h-1.131c-.136-.362-.226-.769-.362-1.131-.136.362-.226.769-.362,1.131H284.2c.317.226.588.452.9.679C285.06-7.528,284.924-7.166,284.834-6.759Z" transform="translate(-275.331 9.7)" fill="#d9a229"/>
    <path id="Path_5739" data-name="Path 5739" d="M273.269-1.843c.045.271.136.588.181.86.136-.271.226-.543.362-.86.272,0,.543.045.86.045-.226-.181-.407-.362-.633-.543.136-.271.226-.543.362-.814-.226.181-.5.317-.724.5-.226-.181-.407-.362-.634-.543.045.271.136.588.181.86-.226.181-.5.317-.724.5A2.192,2.192,0,0,1,273.269-1.843Z" transform="translate(-268.925 6.141)" fill="#d9a229"/>
    <path id="Path_5740" data-name="Path 5740" d="M265.867,8.26a5.768,5.768,0,0,1,.045-.86c-.181.226-.317.5-.5.724-.272-.045-.5-.136-.769-.181.136.226.317.407.452.633-.181.226-.317.5-.5.724.272-.09.5-.226.769-.317.136.226.317.407.452.633a5.772,5.772,0,0,1,.045-.86c.272-.09.5-.226.769-.317A4.735,4.735,0,0,1,265.867,8.26Z" transform="translate(-264.6 0.338)" fill="#d9a229"/>
    <path id="Path_5741" data-name="Path 5741" d="M307.638,8.676c.136-.226.317-.407.452-.633-.272.045-.5.136-.769.181-.181-.226-.317-.5-.5-.724a5.772,5.772,0,0,0,.045.86,4.946,4.946,0,0,0-.769.226c.272.09.5.226.769.317a5.768,5.768,0,0,0,.045.86,7.677,7.677,0,0,1,.452-.633c.271.09.5.226.769.317A5.682,5.682,0,0,0,307.638,8.676Z" transform="translate(-287.322 0.283)" fill="#d9a229"/>
    <path id="Path_5742" data-name="Path 5742" d="M299.069-1.9c.136.271.226.543.362.86.045-.271.136-.588.181-.86a5.769,5.769,0,0,0,.86-.045c-.226-.181-.5-.317-.724-.5.045-.271.136-.588.181-.86-.226.181-.407.362-.634.543-.226-.181-.5-.317-.724-.5.136.271.226.543.362.86-.226.181-.407.362-.634.543A5.232,5.232,0,0,0,299.069-1.9Z" transform="translate(-283.051 6.196)" fill="#d9a229"/>
  </g>
  <g id="Group_2737" data-name="Group 2737" transform="translate(32.941 25.52)">
    <path id="Path_5743" data-name="Path 5743" d="M195.379,43.833h.271l-.679,3.032H194.7Zm.045-.452a.2.2,0,0,1,.181-.181.12.12,0,0,1,.136.136.2.2,0,0,1-.181.181A.144.144,0,0,1,195.424,43.381Z" transform="translate(-194.7 -43.2)" fill="#62072a"/>
    <path id="Path_5744" data-name="Path 5744" d="M197.3,46.888c0,.181.226.317.5.407.317.136.679.271.679.588a.735.735,0,0,1-.815.679h-.09l-.136.181a.166.166,0,0,1,.136-.045.261.261,0,0,1,.271.271.418.418,0,0,1-.452.407.6.6,0,0,1-.452-.181l.09-.136a.559.559,0,0,0,.362.181c.181,0,.317-.091.317-.226,0-.09-.045-.136-.181-.136a.343.343,0,0,0-.181.09l-.09-.09.181-.271a.99.99,0,0,1-.633-.362l.181-.136a.791.791,0,0,0,.724.317c.362,0,.588-.226.588-.452s-.271-.317-.543-.452c-.317-.136-.633-.271-.633-.588s.271-.633.814-.633a1.066,1.066,0,0,1,.814.362l-.136.136a.758.758,0,0,0-.679-.317C197.524,46.481,197.3,46.662,197.3,46.888Z" transform="translate(-195.85 -44.897)" fill="#62072a"/>
    <path id="Path_5745" data-name="Path 5745" d="M204.4,46.4h.272l.362,1.9,1.222-1.9h.272l-1.4,2.172h-.272Z" transform="translate(-200.011 -44.952)" fill="#62072a"/>
    <path id="Path_5746" data-name="Path 5746" d="M210.322,46.3a.867.867,0,0,1,.9.95c0,.09-.045.226-.045.271h-1.855v.136a.716.716,0,0,0,.814.724,1.346,1.346,0,0,0,.679-.226l.091.181a1.431,1.431,0,0,1-.769.271.953.953,0,0,1-1.041-.95A1.28,1.28,0,0,1,210.322,46.3Zm.679.95a.689.689,0,0,0-.724-.724.962.962,0,0,0-.9.814H211Z" transform="translate(-202.584 -44.897)" fill="#62072a"/>
    <path id="Path_5747" data-name="Path 5747" d="M219.274,44.5a1.263,1.263,0,0,1,1.176.633l-.272.09a1.064,1.064,0,0,0-.95-.543,1.454,1.454,0,0,0-1.357,1.584,1.021,1.021,0,0,0,1.086,1.086,1.2,1.2,0,0,0,.86-.362l.181.136a1.594,1.594,0,0,1-1.041.407,1.271,1.271,0,0,1-1.357-1.312A1.68,1.68,0,0,1,219.274,44.5Z" transform="translate(-207.238 -43.912)" fill="#62072a"/>
    <path id="Path_5748" data-name="Path 5748" d="M225.322,46.3a.867.867,0,0,1,.9.95c0,.09-.045.226-.045.271h-1.855v.136a.716.716,0,0,0,.814.724,1.347,1.347,0,0,0,.679-.226l.09.181a1.43,1.43,0,0,1-.769.271.953.953,0,0,1-1.041-.95A1.28,1.28,0,0,1,225.322,46.3Zm.679.95a.689.689,0,0,0-.724-.724.962.962,0,0,0-.9.814H226Z" transform="translate(-210.797 -44.897)" fill="#62072a"/>
    <path id="Path_5749" data-name="Path 5749" d="M232.541,46.969v-.136a.37.37,0,0,0-.407-.362.916.916,0,0,0-.633.362l-.362,1.629h-.226l.317-1.538v-.136a.37.37,0,0,0-.407-.362.916.916,0,0,0-.633.362l-.362,1.629H229.6l.5-2.172h.226l-.091.317a.993.993,0,0,1,.679-.362.513.513,0,0,1,.543.407h0a1.008,1.008,0,0,1,.769-.407.522.522,0,0,1,.543.543.272.272,0,0,1-.045.181l-.317,1.538h-.226Z" transform="translate(-213.808 -44.843)" fill="#62072a"/>
    <path id="Path_5750" data-name="Path 5750" d="M237.9,45.524h.226l-.5,2.172H237.4Zm.272-.724a.2.2,0,0,1,.181.181.166.166,0,0,1-.181.181.2.2,0,0,1-.181-.136A.182.182,0,0,1,238.169,44.8Z" transform="translate(-218.079 -44.076)" fill="#62072a"/>
    <path id="Path_5751" data-name="Path 5751" d="M239.226,49.2c.136,0,.226-.045.362-.271l.272-.407-.407-2.217h.271l.362,1.9,1.222-1.9h.272l-1.719,2.67c-.181.271-.362.407-.588.407a.574.574,0,0,1-.271-.045l.09-.226C239.091,49.2,239.181,49.2,239.226,49.2Z" transform="translate(-218.955 -44.897)" fill="#62072a"/>
    <path id="Path_5752" data-name="Path 5752" d="M245.822,46.3a.867.867,0,0,1,.9.95c0,.09-.045.226-.045.271h-1.855v.136a.717.717,0,0,0,.814.724,1.347,1.347,0,0,0,.679-.226l.09.181a1.431,1.431,0,0,1-.769.271.953.953,0,0,1-1.041-.95A1.28,1.28,0,0,1,245.822,46.3Zm.679.95a.689.689,0,0,0-.724-.724.962.962,0,0,0-.9.814H246.5Z" transform="translate(-222.021 -44.897)" fill="#62072a"/>
    <path id="Path_5753" data-name="Path 5753" d="M250.4,47.453l.362-1.538H250.4l.045-.226h.362l.136-.588h.226l-.136.588h.452l-.045.226h-.453l-.317,1.493v.09a.214.214,0,0,0,.226.226.346.346,0,0,0,.226-.09l.045.181a.654.654,0,0,1-.317.09c-.272,0-.453-.09-.453-.362Z" transform="translate(-225.196 -44.24)" fill="#62072a"/>
    <path id="Path_5754" data-name="Path 5754" d="M258.305,45.812a1.751,1.751,0,0,1-1.855,1.719h-.95l.679-3.032h.95A1.292,1.292,0,0,1,258.305,45.812Zm-.271,0a.987.987,0,0,0-1-1.041h-.679l-.543,2.534h.679A1.462,1.462,0,0,0,258.034,45.812Z" transform="translate(-227.989 -43.912)" fill="#62072a"/>
    <path id="Path_5755" data-name="Path 5755" d="M262.872,47.017c0,.045-.045.09-.045.181,0,.271.226.362.5.362a1.117,1.117,0,0,0,.724-.362l.362-1.629h.226l-.5,2.172h-.226l.091-.317a1.229,1.229,0,0,1-.769.362c-.362,0-.633-.181-.633-.543a.272.272,0,0,1,.045-.181l.317-1.538h.226Zm.452-2.036a.2.2,0,0,1,.181-.181.144.144,0,0,1,.136.136.2.2,0,0,1-.181.181C263.414,45.162,263.324,45.071,263.324,44.981Zm.95,0a.2.2,0,0,1,.181-.181.144.144,0,0,1,.136.136.2.2,0,0,1-.181.181C264.319,45.162,264.274,45.071,264.274,44.981Z" transform="translate(-231.876 -44.076)" fill="#62072a"/>
    <path id="Path_5756" data-name="Path 5756" d="M269.565,47.124c0-.045.045-.09.045-.136,0-.271-.226-.362-.453-.362a1.349,1.349,0,0,0-.769.362l-.362,1.629H267.8l.5-2.172h.226l-.091.317a1.229,1.229,0,0,1,.769-.362c.362,0,.634.181.634.543a.272.272,0,0,1-.045.181l-.317,1.538h-.226Z" transform="translate(-234.723 -44.952)" fill="#62072a"/>
    <path id="Path_5757" data-name="Path 5757" d="M272.826,49.2c.136,0,.226-.045.362-.271l.271-.407-.407-2.217h.272l.362,1.9,1.222-1.9h.271l-1.719,2.67c-.181.271-.362.407-.588.407a.574.574,0,0,1-.272-.045l.091-.226C272.645,49.2,272.736,49.2,272.826,49.2Z" transform="translate(-237.351 -44.897)" fill="#62072a"/>
    <path id="Path_5758" data-name="Path 5758" d="M280.136,46.29h.226l-.5,2.172h-.226l.091-.317a.966.966,0,0,1-.769.362.821.821,0,0,1-.86-.9,1.283,1.283,0,0,1,1.131-1.4.878.878,0,0,1,.769.407Zm-1.086,2.036a.857.857,0,0,0,.724-.407L280,46.879a.751.751,0,0,0-.724-.407,1.03,1.03,0,0,0-.9,1.131A.654.654,0,0,0,279.05,48.327Z" transform="translate(-240.362 -44.843)" fill="#62072a"/>
    <path id="Path_5759" data-name="Path 5759" d="M283.69,48.01a.848.848,0,0,0,.724.317c.362,0,.588-.226.588-.452s-.271-.317-.543-.452c-.317-.136-.634-.271-.634-.588s.271-.633.814-.633a1.066,1.066,0,0,1,.814.362l-.136.136a.758.758,0,0,0-.679-.317c-.317,0-.543.181-.543.407,0,.181.226.317.5.407.317.136.679.271.679.588a.735.735,0,0,1-.814.679,1.026,1.026,0,0,1-.86-.362Z" transform="translate(-243.374 -44.843)" fill="#62072a"/>
    <path id="Path_5760" data-name="Path 5760" d="M288.7,46.4h.226l-.5,2.172H288.2Z" transform="translate(-245.892 -44.952)" fill="#62072a"/>
    <path id="Path_5761" data-name="Path 5761" d="M292.265,47.124c0-.045.045-.09.045-.136,0-.271-.226-.362-.452-.362a1.349,1.349,0,0,0-.769.362l-.362,1.629H290.5l.5-2.172h.226l-.09.317a1.229,1.229,0,0,1,.769-.362c.362,0,.633.181.633.543a.272.272,0,0,1-.045.181l-.317,1.538h-.226Z" transform="translate(-247.151 -44.952)" fill="#62072a"/>
    <path id="Path_5762" data-name="Path 5762" d="M296.3,46.4h.226l-.5,2.172H295.8Z" transform="translate(-250.053 -44.952)" fill="#62072a"/>
    <path id="Path_5763" data-name="Path 5763" d="M299.765,47.124c0-.045.045-.09.045-.136,0-.271-.226-.362-.452-.362a1.349,1.349,0,0,0-.769.362l-.362,1.629H298l.5-2.172h.226l-.09.317a1.229,1.229,0,0,1,.769-.362c.362,0,.633.181.633.543a.272.272,0,0,1-.045.181l-.317,1.538h-.226Z" transform="translate(-251.258 -44.952)" fill="#62072a"/>
    <path id="Path_5764" data-name="Path 5764" d="M326.589,46.184h-1.9l-.317,1.448H324.1l.679-3.032h.271l-.271,1.357h1.9L327,44.6h.271l-.679,3.032h-.271Z" transform="translate(-265.548 -43.967)" fill="#62072a"/>
    <path id="Path_5765" data-name="Path 5765" d="M333.236,46.29h.226l-.5,2.172h-.226l.09-.317a.966.966,0,0,1-.769.362.821.821,0,0,1-.86-.9,1.283,1.283,0,0,1,1.131-1.4.878.878,0,0,1,.769.407Zm-1.086,2.036a.857.857,0,0,0,.724-.407l.226-1.041a.751.751,0,0,0-.724-.407,1.03,1.03,0,0,0-.9,1.131A.654.654,0,0,0,332.15,48.327Z" transform="translate(-269.435 -44.843)" fill="#62072a"/>
    <path id="Path_5766" data-name="Path 5766" d="M337.026,47.532H336.8l.679-3.032h.226l-.271,1.176a.966.966,0,0,1,.769-.362.821.821,0,0,1,.86.9,1.283,1.283,0,0,1-1.131,1.4.878.878,0,0,1-.769-.407Zm1.086-1.991a.857.857,0,0,0-.724.407l-.226,1.041a.751.751,0,0,0,.724.407,1.03,1.03,0,0,0,.9-1.131A.654.654,0,0,0,338.112,45.541Z" transform="translate(-272.501 -43.912)" fill="#62072a"/>
    <path id="Path_5767" data-name="Path 5767" d="M343.922,46.3a.867.867,0,0,1,.9.95c0,.09-.045.226-.045.271h-1.855v.136a.716.716,0,0,0,.814.724,1.346,1.346,0,0,0,.679-.226l.09.181a1.43,1.43,0,0,1-.769.271.953.953,0,0,1-1.041-.95A1.28,1.28,0,0,1,343.922,46.3Zm.679.95a.689.689,0,0,0-.724-.724.962.962,0,0,0-.905.814H344.6Z" transform="translate(-275.732 -44.897)" fill="#62072a"/>
    <path id="Path_5768" data-name="Path 5768" d="M348.543,46.345h.226l-.091.362a.968.968,0,0,1,.814-.407l-.045.271h-.181a.841.841,0,0,0-.679.407l-.362,1.584H348Z" transform="translate(-278.633 -44.897)" fill="#62072a"/>
    <path id="Path_5769" data-name="Path 5769" d="M354.524,44.6h1.041a.763.763,0,0,1,.769.769,1.013,1.013,0,0,1-1.131,1h-.86l-.271,1.267H353.8Zm1.584.769a.55.55,0,0,0-.543-.543h-.814l-.271,1.312h.86A.736.736,0,0,0,356.108,45.369Z" transform="translate(-281.809 -43.967)" fill="#62072a"/>
    <path id="Path_5770" data-name="Path 5770" d="M360.922,46.3a.88.88,0,0,1,.95.95,1.266,1.266,0,0,1-1.222,1.312.88.88,0,0,1-.95-.95A1.266,1.266,0,0,1,360.922,46.3Zm-.045.226a1.063,1.063,0,0,0-.95,1.131.7.7,0,0,0,.724.769,1.063,1.063,0,0,0,.95-1.131A.68.68,0,0,0,360.877,46.526Z" transform="translate(-285.039 -44.897)" fill="#62072a"/>
    <path id="Path_5771" data-name="Path 5771" d="M365.643,46.345h.226l-.091.362a.968.968,0,0,1,.814-.407l-.045.271h-.181a.841.841,0,0,0-.679.407l-.362,1.584H365.1Z" transform="translate(-287.996 -44.897)" fill="#62072a"/>
    <path id="Path_5772" data-name="Path 5772" d="M368.7,47.453l.362-1.538H368.7l.045-.226h.362l.136-.588h.226l-.136.588h.452l-.045.226h-.452l-.317,1.493v.09a.214.214,0,0,0,.226.226.346.346,0,0,0,.226-.09l.045.181a.654.654,0,0,1-.317.09c-.271,0-.452-.09-.452-.362Z" transform="translate(-289.967 -44.24)" fill="#62072a"/>
    <path id="Path_5773" data-name="Path 5773" d="M373.336,46.29h.226l-.5,2.172h-.226l.091-.317a.967.967,0,0,1-.769.362.821.821,0,0,1-.86-.9,1.283,1.283,0,0,1,1.131-1.4.878.878,0,0,1,.769.407Zm-1.086,2.036a.857.857,0,0,0,.724-.407l.226-1.041a.751.751,0,0,0-.724-.407,1.03,1.03,0,0,0-.9,1.131A.654.654,0,0,0,372.25,48.327Z" transform="translate(-291.39 -44.843)" fill="#62072a"/>
    <path id="Path_5774" data-name="Path 5774" d="M377.479,44.6h.226l-.679,3.032H376.8Z" transform="translate(-294.402 -43.967)" fill="#62072a"/>
    <path id="Path_5775" data-name="Path 5775" d="M379.5,46.4h.226l-.5,2.172H379Z" transform="translate(-295.606 -44.952)" fill="#62072a"/>
  </g>
  <g id="Group_2740" data-name="Group 2740" transform="translate(0 6.606)">
    <g id="Group_2738" data-name="Group 2738" transform="translate(0 7.33)">
      <path id="Path_5776" data-name="Path 5776" d="M121.9,17.6h4.706v1.222h-1.584v3.665h-1.538V18.822H121.9Z" transform="translate(-121.9 -17.6)" fill="#62072a"/>
    </g>
    <rect id="Rectangle_117" data-name="Rectangle 117" width="4.796" height="1.086" transform="translate(0.09 5.566)" fill="#62072a"/>
    <g id="Group_2739" data-name="Group 2739" transform="translate(0.136)">
      <path id="Path_5777" data-name="Path 5777" d="M122.2,1.4h1.538V3.119h1.719V1.4H127V6.287h-1.538V4.341h-1.719V6.332H122.2Z" transform="translate(-122.2 -1.4)" fill="#62072a"/>
    </g>
  </g>
</svg>
