<svg id="showmax" xmlns="http://www.w3.org/2000/svg" xmlns:xlink="http://www.w3.org/1999/xlink" width="30" height="30" viewBox="0 0 30 30">
  <defs>
    <linearGradient id="linear-gradient" x1="0.91" y1="-0.186" x2="0.069" y2="1.448" gradientUnits="objectBoundingBox">
      <stop offset="0" stop-color="#ed2028"/>
      <stop offset="1" stop-color="#922874"/>
    </linearGradient>
    <linearGradient id="linear-gradient-2" x1="-0.391" y1="1.058" x2="1.068" y2="0.026" gradientUnits="objectBoundingBox">
      <stop offset="0" stop-color="#0066a7"/>
      <stop offset="1" stop-color="#922874"/>
    </linearGradient>
    <linearGradient id="linear-gradient-3" x1="0" y1="-0.252" x2="1.024" y2="1.523" xlink:href="#linear-gradient"/>
    <linearGradient id="linear-gradient-4" x1="0.311" y1="0.231" x2="0.764" y2="0.683" gradientUnits="objectBoundingBox">
      <stop offset="0" stop-color="#922874"/>
      <stop offset="1" stop-color="#0066a7"/>
    </linearGradient>
  </defs>
  <path id="Path_5778" data-name="Path 5778" d="M37.408,13.122s3.286-5.339,4.2-7.347S40.42,2.581,38.092,2.261A2.272,2.272,0,0,0,35.4,4.087V12.62a4.481,4.481,0,0,0,.091.958,3.375,3.375,0,0,1,1.323.365A8.859,8.859,0,0,0,37.408,13.122Z" transform="translate(-20.217 -2.183)" fill="#ed2127"/>
  <path id="Path_5779" data-name="Path 5779" d="M27.068,12.52c-.046-.593,0-8.533,0-8.533a2.309,2.309,0,0,0-2.692-1.825c-2.282.319-4.381,1.46-3.514,3.514s4.2,7.347,4.2,7.347a5.119,5.119,0,0,0,.593.821,3.319,3.319,0,0,1,1.323-.319A2.978,2.978,0,0,0,27.068,12.52Z" transform="translate(-12.205 -2.129)" fill="#eb1e2e"/>
  <path id="Path_5780" data-name="Path 5780" d="M24.938,42.921s-3.286,5.339-4.2,7.347,1.186,3.194,3.514,3.514a2.309,2.309,0,0,0,2.692-1.825V43.423a4.481,4.481,0,0,0-.091-.958,3.375,3.375,0,0,1-1.323-.365A8.859,8.859,0,0,0,24.938,42.921Z" transform="translate(-12.129 -23.86)" fill="#0067aa"/>
  <path id="Path_5781" data-name="Path 5781" d="M35.285,43.523c.046.593,0,8.533,0,8.533a2.309,2.309,0,0,0,2.692,1.825c2.282-.319,4.381-1.46,3.514-3.514s-4.2-7.347-4.2-7.347A5.119,5.119,0,0,0,36.7,42.2a3.319,3.319,0,0,1-1.323.319A2.838,2.838,0,0,0,35.285,43.523Z" transform="translate(-20.148 -23.914)" fill="#0067a9"/>
  <path id="Path_5782" data-name="Path 5782" d="M13.122,24.938s-5.339-3.286-7.347-4.2-3.194,1.186-3.514,3.514a2.272,2.272,0,0,0,1.825,2.692H12.62a4.481,4.481,0,0,0,.958-.091,3.173,3.173,0,0,1,.365-1.323A8.858,8.858,0,0,0,13.122,24.938Z" transform="translate(-2.183 -12.129)" fill="#922874"/>
  <path id="Path_5783" data-name="Path 5783" d="M18.619,17.537a8.561,8.561,0,0,0-.411-.867s-2.966-5.522-4.289-7.3-3.377-.548-4.791,1.278a2.291,2.291,0,0,0,.274,3.24s6.891,3.924,7.393,4.244a3.8,3.8,0,0,0,.821.365A5.052,5.052,0,0,1,18.619,17.537Z" transform="translate(-5.627 -5.594)" fill="url(#linear-gradient)"/>
  <path id="Path_5784" data-name="Path 5784" d="M39.6,40.358a4.643,4.643,0,0,0,.411.913s2.966,5.522,4.29,7.3,3.377.548,4.791-1.278a2.291,2.291,0,0,0-.274-3.24s-6.891-3.924-7.393-4.244a3.546,3.546,0,0,0-.913-.411A3.631,3.631,0,0,1,39.6,40.358Z" transform="translate(-22.501 -22.392)" fill="url(#linear-gradient-2)"/>
  <path id="Path_5785" data-name="Path 5785" d="M12.52,35.285c-.593.046-8.533,0-8.533,0a2.309,2.309,0,0,0-1.825,2.692c.319,2.282,1.46,4.381,3.514,3.514s7.347-4.2,7.347-4.2a5.119,5.119,0,0,0,.821-.593,4.386,4.386,0,0,1-.365-1.323A2.689,2.689,0,0,0,12.52,35.285Z" transform="translate(-2.129 -20.148)" fill="#922874"/>
  <path id="Path_5786" data-name="Path 5786" d="M52.057,35.4H43.523a4.481,4.481,0,0,0-.958.091,3.375,3.375,0,0,1-.365,1.323,5.12,5.12,0,0,0,.821.593s5.293,3.286,7.347,4.2,3.194-1.186,3.514-3.514A2.272,2.272,0,0,0,52.057,35.4Z" transform="translate(-23.914 -20.217)" fill="#922874"/>
  <path id="Path_5787" data-name="Path 5787" d="M43.523,27.068c.593-.046,8.533,0,8.533,0a2.309,2.309,0,0,0,1.825-2.692c-.319-2.282-1.46-4.381-3.514-3.514s-7.347,4.2-7.347,4.2a5.12,5.12,0,0,0-.821.593,3.319,3.319,0,0,1,.319,1.323A2.838,2.838,0,0,0,43.523,27.068Z" transform="translate(-23.914 -12.205)" fill="#922874"/>
  <path id="Path_5788" data-name="Path 5788" d="M40.513,18.5a3.546,3.546,0,0,0,.913-.411c.5-.319,7.438-4.244,7.438-4.244a2.337,2.337,0,0,0,.274-3.24c-1.415-1.825-3.468-3.1-4.791-1.323s-4.335,7.3-4.335,7.3a5.628,5.628,0,0,0-.411.958A6.1,6.1,0,0,1,40.513,18.5Z" transform="translate(-22.501 -5.554)" fill="url(#linear-gradient-3)"/>
  <path id="Path_5789" data-name="Path 5789" d="M17.5,39.3a3.423,3.423,0,0,0-.867.411C16.134,40.03,9.244,44,9.244,44a2.3,2.3,0,0,0-.228,3.24c1.415,1.825,3.468,3.1,4.791,1.278,1.323-1.78,4.289-7.3,4.289-7.3a8.561,8.561,0,0,0,.411-.867A4.369,4.369,0,0,1,17.5,39.3Z" transform="translate(-5.561 -22.338)" fill="url(#linear-gradient-4)"/>
  <path id="Path_5790" data-name="Path 5790" d="M34.256,30.651v-.228a4.323,4.323,0,0,0-.319-1.323c-.091-.183-.183-.319-.274-.5a4.768,4.768,0,0,0-.958-.958c-.137-.091-.319-.183-.456-.274A4.386,4.386,0,0,0,30.924,27h-.5a4.323,4.323,0,0,0-1.323.319c-.137.091-.319.137-.456.228a3.507,3.507,0,0,0-1,1,4.015,4.015,0,0,0-.274.456A4.386,4.386,0,0,0,27,30.331v.456a3.375,3.375,0,0,0,.365,1.323,1.85,1.85,0,0,0,.228.411,3.507,3.507,0,0,0,1,1,4.977,4.977,0,0,0,.5.274,4.386,4.386,0,0,0,1.323.365h.456a4.323,4.323,0,0,0,1.323-.319,3.4,3.4,0,0,0,.548-.319,4.767,4.767,0,0,0,.958-.958,1.849,1.849,0,0,0,.228-.411,4.386,4.386,0,0,0,.365-1.323C34.256,30.833,34.256,30.742,34.256,30.651Z" transform="translate(-15.651 -15.651)" fill="#fff"/>
  <circle id="Ellipse_11003" data-name="Ellipse 11003" cx="1.734" cy="1.734" r="1.734" transform="translate(13.266 13.266)" fill="#99979c"/>
  <path id="Path_5791" data-name="Path 5791" d="M15.3,27.6h1.643v2.784h1.734V27.646h1.6v6.8h-1.6V31.524H16.943v2.921H15.3Z" transform="translate(-9.29 -15.977)" fill="#fff"/>
  <path id="Path_5792" data-name="Path 5792" d="M42.3,27.6l1.643.046,1.278,4.746L46.453,27.6h1.415l1.186,4.791,1.05-4.746h1.78l-1.871,6.8H48.324l-1.141-4.381L45.905,34.4h-1.78Z" transform="translate(-23.969 -15.977)" fill="#fafbfb"/>
  <path id="Path_5793" data-name="Path 5793" d="M5.3,33.908l.365-1.141s1.506.867,1.962-.228c.456-1.05-1.278-1.186-1.962-2.145A2.126,2.126,0,0,1,7.582,27.2c1.369.137,1.6.411,1.6.411l-.365.958s-1.734-.913-1.825.5a1.023,1.023,0,0,0,.548.867c.319.183.684.274.958.456a2.081,2.081,0,0,1,.684,2.692,4.281,4.281,0,0,1-.411.548c-.183.137-.411.411-.639.456A3.267,3.267,0,0,1,5.3,33.908Z" transform="translate(-3.853 -15.759)" fill="#fff"/>
  <path id="Path_5794" data-name="Path 5794" d="M5.248,43.385h24.14s1-.228.593,1.278-.548,2.19-.548,2.19-.137.821-1.323.821H13.325l.593-2.6s.5-1.1-1-1.1H4.7Z" transform="translate(-3.527 -24.552)" fill="#fff"/>
  <path id="Path_5795" data-name="Path 5795" d="M25.7,47.722l.913-3.422h1.506l.183,2.327L29.67,44.3h1.643l-.867,3.422h-.867l.593-2.51-1.552,2.51h-.958l-.365-2.51-.5,2.51Z" transform="translate(-14.944 -25.056)" fill="#807f84"/>
  <path id="Path_5796" data-name="Path 5796" d="M41.468,44.3H40.19L38,47.722h1.05l.456-.548h1.643l.137.548h.958Zm-1.643,2.236.821-1.369.319,1.369Z" transform="translate(-21.631 -25.056)" fill="#807f84"/>
  <path id="Path_5797" data-name="Path 5797" d="M48.821,44.3h1.141l.593,1.05.958-1.05h1.232l-1.6,1.688.958,1.734h-1.1l-.548-1.186-1.05,1.186H48l1.78-1.734Z" transform="translate(-27.068 -25.056)" fill="#807f84"/>
</svg>
