<svg id="showturk" xmlns="http://www.w3.org/2000/svg" xmlns:xlink="http://www.w3.org/1999/xlink" width="24.42" height="30" viewBox="0 0 24.42 30">
  <defs>
    <linearGradient id="linear-gradient" x1="0.016" y1="0.387" x2="2.782" y2="1.302" gradientUnits="objectBoundingBox">
      <stop offset="0" stop-color="#fbe93c"/>
      <stop offset="1" stop-color="#00b04c"/>
    </linearGradient>
    <linearGradient id="linear-gradient-2" x1="0.88" y1="0.167" x2="-0.433" y2="1.555" gradientUnits="objectBoundingBox">
      <stop offset="0" stop-color="#fbe93c"/>
      <stop offset="0.753" stop-color="#d54f2b"/>
      <stop offset="1" stop-color="#a179b6"/>
    </linearGradient>
    <radialGradient id="radial-gradient" cx="16.668" cy="15.027" r="2.44" gradientUnits="objectBoundingBox">
      <stop offset="0" stop-color="#c77eb5"/>
      <stop offset="0.25" stop-color="#0090d3"/>
      <stop offset="0.5" stop-color="#585faa"/>
      <stop offset="0.753" stop-color="#894299"/>
      <stop offset="1" stop-color="#9ad0f1"/>
    </radialGradient>
    <linearGradient id="linear-gradient-3" x1="-0.341" y1="0.773" x2="1.941" y2="-0.107" gradientUnits="objectBoundingBox">
      <stop offset="0" stop-color="#2e3192"/>
      <stop offset="0.438" stop-color="#00aeef"/>
      <stop offset="1" stop-color="#43b649"/>
    </linearGradient>
    <linearGradient id="linear-gradient-4" x1="1.025" y1="-1.187" x2="0.299" y2="1.374" xlink:href="#linear-gradient-2"/>
    <linearGradient id="linear-gradient-5" x1="0.911" y1="-0.187" x2="0.067" y2="1.442" xlink:href="#linear-gradient-2"/>
    <linearGradient id="linear-gradient-6" x1="-0.386" y1="1.052" x2="1.07" y2="0.019" xlink:href="#linear-gradient-3"/>
    <radialGradient id="radial-gradient-2" cx="0.94" cy="-12.365" r="3.684" xlink:href="#radial-gradient"/>
    <linearGradient id="linear-gradient-7" x1="-0.518" y1="1.717" x2="0.73" y2="0.107" xlink:href="#linear-gradient-3"/>
    <linearGradient id="linear-gradient-8" x1="-0.332" y1="-0.353" x2="1.166" y2="1.313" xlink:href="#linear-gradient"/>
    <linearGradient id="linear-gradient-9" x1="-0.171" y1="0.155" x2="1.569" y2="1.221" xlink:href="#linear-gradient"/>
    <radialGradient id="radial-gradient-3" cx="2.168" cy="0.526" r="2.834" xlink:href="#radial-gradient"/>
  </defs>
  <g id="Group_2745" data-name="Group 2745" transform="translate(0 0)">
    <g id="Group_2744" data-name="Group 2744">
      <path id="Path_5818" data-name="Path 5818" d="M30.713,10s2.688-4.346,3.4-6S33.132,1.4,31.3,1.175a1.924,1.924,0,0,0-2.2,1.478V9.6a2.663,2.663,0,0,0,.09.762,2.739,2.739,0,0,1,1.075.314C30.444,10.449,30.713,10,30.713,10Z" transform="translate(-16.752 -1.147)" fill="url(#linear-gradient)"/>
      <path id="Path_5819" data-name="Path 5819" d="M22.056,9.588V2.644a1.856,1.856,0,0,0-2.2-1.478c-1.882.269-3.584,1.21-2.867,2.867s3.4,6,3.4,6a3.222,3.222,0,0,0,.448.672,2.251,2.251,0,0,1,1.075-.269A1.709,1.709,0,0,0,22.056,9.588Z" transform="translate(-9.977 -1.137)" fill="url(#linear-gradient-2)"/>
      <path id="Path_5820" data-name="Path 5820" d="M20.4,34.927s-2.688,4.346-3.4,6,.986,2.6,2.867,2.867a1.856,1.856,0,0,0,2.2-1.478V35.375a3.337,3.337,0,0,0-.09-.806,3.781,3.781,0,0,1-1.075-.269A5.136,5.136,0,0,0,20.4,34.927Z" transform="translate(-9.977 -19.443)" fill="url(#radial-gradient)"/>
      <path id="Path_5821" data-name="Path 5821" d="M29,35.32v6.944a1.856,1.856,0,0,0,2.2,1.478c1.882-.269,3.584-1.21,2.867-2.867s-3.4-6-3.4-6a4.435,4.435,0,0,0-.493-.672,2.717,2.717,0,0,1-1.075.269A3.78,3.78,0,0,0,29,35.32Z" transform="translate(-16.696 -19.388)" fill="url(#linear-gradient-3)"/>
      <path id="Path_5822" data-name="Path 5822" d="M10.436,20s-4.346-2.688-6-3.4-2.6.986-2.867,2.867a1.8,1.8,0,0,0,1.478,2.15H9.988a2.663,2.663,0,0,0,.762-.09,3.781,3.781,0,0,1,.269-1.075A2.437,2.437,0,0,0,10.436,20Z" transform="translate(-1.537 -9.577)" fill="url(#linear-gradient-4)"/>
      <path id="Path_5823" data-name="Path 5823" d="M15.057,13.745a4.24,4.24,0,0,0-.314-.717s-2.419-4.48-3.494-5.914c-1.075-1.478-2.733-.448-3.9,1.03a1.907,1.907,0,0,0,.224,2.643s5.6,3.226,6,3.45a2.159,2.159,0,0,0,.672.314A3.445,3.445,0,0,1,15.057,13.745Z" transform="translate(-4.5 -4.04)" fill="url(#linear-gradient-5)"/>
      <path id="Path_5824" data-name="Path 5824" d="M32.5,32.817a4.144,4.144,0,0,0,.358.762s2.419,4.48,3.494,5.959,2.733.448,3.9-1.03a1.907,1.907,0,0,0-.224-2.643s-5.6-3.226-6-3.45a1.937,1.937,0,0,0-.762-.314A3.957,3.957,0,0,1,32.5,32.817Z" transform="translate(-18.628 -18.228)" fill="url(#linear-gradient-6)"/>
      <path id="Path_5825" data-name="Path 5825" d="M9.988,28.579H3.044a1.856,1.856,0,0,0-1.478,2.2c.269,1.882,1.21,3.584,2.867,2.867s6-3.4,6-3.4a3.222,3.222,0,0,0,.672-.448,2.251,2.251,0,0,1-.269-1.075A1.278,1.278,0,0,0,9.988,28.579Z" transform="translate(-1.537 -16.276)" fill="url(#radial-gradient-2)"/>
      <path id="Path_5826" data-name="Path 5826" d="M42.719,28.7H35.775a3.337,3.337,0,0,0-.806.09,3.781,3.781,0,0,1-.269,1.075,4.435,4.435,0,0,0,.672.493s4.346,2.688,6,3.4,2.6-.986,2.867-2.867A1.9,1.9,0,0,0,42.719,28.7Z" transform="translate(-19.843 -16.352)" fill="url(#linear-gradient-7)"/>
      <path id="Path_5827" data-name="Path 5827" d="M35.72,21.656h6.944a1.856,1.856,0,0,0,1.478-2.2c-.269-1.882-1.21-3.584-2.867-2.867s-6,3.4-6,3.4a4.435,4.435,0,0,0-.672.493,2.716,2.716,0,0,1,.269,1.075A4.124,4.124,0,0,0,35.72,21.656Z" transform="translate(-19.788 -9.577)" fill="url(#linear-gradient-8)"/>
      <path id="Path_5828" data-name="Path 5828" d="M33.262,14.535a3.889,3.889,0,0,0,.762-.314c.4-.269,6.048-3.45,6.048-3.45A1.907,1.907,0,0,0,40.3,8.129c-1.12-1.478-2.822-2.509-3.9-1.075-1.075,1.478-3.539,5.959-3.539,5.959a4.143,4.143,0,0,0-.358.762A2.47,2.47,0,0,1,33.262,14.535Z" transform="translate(-18.628 -4.024)" fill="url(#linear-gradient-9)"/>
      <path id="Path_5829" data-name="Path 5829" d="M14.15,31.9a2.743,2.743,0,0,0-.672.314c-.4.269-6,3.494-6,3.494a1.907,1.907,0,0,0-.224,2.643c1.165,1.478,2.822,2.509,3.9,1.03s3.494-5.959,3.494-5.959a4.24,4.24,0,0,0,.314-.717A3.445,3.445,0,0,1,14.15,31.9Z" transform="translate(-4.445 -18.118)" fill="url(#radial-gradient-3)"/>
    </g>
    <path id="Path_5830" data-name="Path 5830" d="M28.069,24.657v-.179A3.782,3.782,0,0,0,27.8,23.4a1.816,1.816,0,0,0-.224-.4,2.47,2.47,0,0,0-.762-.762c-.134-.09-.224-.134-.358-.224a2.98,2.98,0,0,0-1.075-.314h-.4a2.717,2.717,0,0,0-1.075.269,1.572,1.572,0,0,0-.358.224,3.642,3.642,0,0,0-.851.806c-.09.134-.134.224-.224.358a2.251,2.251,0,0,0-.269,1.075v.358a3.781,3.781,0,0,0,.269,1.075,1.948,1.948,0,0,0,.179.314,3.642,3.642,0,0,0,.806.851,1.816,1.816,0,0,0,.4.224,2.251,2.251,0,0,0,1.075.269h.358a3.781,3.781,0,0,0,1.075-.269c.134-.09.314-.179.448-.269a2.6,2.6,0,0,0,.762-.806.9.9,0,0,0,.179-.358,2.128,2.128,0,0,0,.269-1.075C28.069,24.791,28.069,24.746,28.069,24.657Z" transform="translate(-12.943 -12.488)" fill="#fff"/>
    <ellipse id="Ellipse_11005" data-name="Ellipse 11005" cx="1.434" cy="1.434" rx="1.434" ry="1.434" transform="translate(10.78 10.736)" fill="#eda32f"/>
    <path id="Path_5831" data-name="Path 5831" d="M12.4,22.2h1.344v2.24h1.434V22.2h1.3v5.555h-1.3V25.381H13.744v2.374H12.4Z" transform="translate(-7.533 -12.764)" fill="#fff"/>
    <path id="Path_5832" data-name="Path 5832" d="M34.8,22.2h1.344l1.03,3.9,1.03-3.9h1.12l.986,3.9.851-3.9H42.6l-1.523,5.555H39.683l-.9-3.539-1.075,3.539H36.278Z" transform="translate(-19.898 -12.764)" fill="#fcfcfc"/>
    <path id="Path_5833" data-name="Path 5833" d="M4.2,27.321l.314-.9s1.21.717,1.613-.179c.4-.851-1.03-.941-1.613-1.747a1.722,1.722,0,0,1,1.568-2.6c1.12.09,1.3.358,1.3.358l-.269.806s-1.434-.717-1.478.4a.734.734,0,0,0,.448.672c.269.134.538.224.806.358a1.709,1.709,0,0,1,.582,2.2,1.754,1.754,0,0,1-.358.448,2.156,2.156,0,0,1-.493.4A3.706,3.706,0,0,1,4.2,27.321Z" transform="translate(-3.007 -12.598)" fill="#fff"/>
  </g>
  <g id="Group_2746" data-name="Group 2746" transform="translate(2.851 26.416)">
    <path id="Path_5834" data-name="Path 5834" d="M9.423,63.639V60.682H7.9V60.1h4.077v.582H10.454v2.957Z" transform="translate(-7.9 -60.1)"/>
    <path id="Path_5835" data-name="Path 5835" d="M18.4,60.1h1.03v1.926a1.706,1.706,0,0,0,.045.582.6.6,0,0,0,.314.358,1.5,1.5,0,0,0,.672.134,1.371,1.371,0,0,0,.672-.134.6.6,0,0,0,.269-.314,2.022,2.022,0,0,0,.045-.582V60.1h1.03v1.882a3.622,3.622,0,0,1-.09.9,1.024,1.024,0,0,1-.314.448,1.173,1.173,0,0,1-.582.269,3.21,3.21,0,0,1-.986.09,3.617,3.617,0,0,1-1.12-.134,1.416,1.416,0,0,1-.582-.314,1.058,1.058,0,0,1-.269-.4,2.5,2.5,0,0,1-.09-.9V60.1Z" transform="translate(-13.696 -60.1)"/>
    <path id="Path_5836" data-name="Path 5836" d="M29.9,63.639V60.1h2.15a7.408,7.408,0,0,1,1.21.09.876.876,0,0,1,.582.358.931.931,0,0,1,.224.538.851.851,0,0,1-.358.672,2,2,0,0,1-1.03.314,1.549,1.549,0,0,1,.538.314,3.475,3.475,0,0,1,.582.582l.627.672H33.17l-.762-.762-.538-.538a.407.407,0,0,0-.314-.134,1.546,1.546,0,0,0-.538-.045H30.8v1.478Zm1.03-2.016h.762a4.415,4.415,0,0,0,.941-.045.73.73,0,0,0,.269-.134.48.48,0,0,0,.09-.269.271.271,0,0,0-.134-.269.548.548,0,0,0-.4-.134H30.886v.851Z" transform="translate(-20.044 -60.1)"/>
    <path id="Path_5837" data-name="Path 5837" d="M41.5,63.639V60.1h1.03v1.568L44.591,60.1H45.98l-1.926,1.389,2.016,2.15H44.726l-1.389-1.658-.851.582v1.075Z" transform="translate(-26.447 -60.1)"/>
  </g>
</svg>
