<svg xmlns="http://www.w3.org/2000/svg" width="61.508" height="50" viewBox="0 0 61.508 50">
  <path id="Path_9809" data-name="Path 9809" d="M56.51-51.08A12.939,12.939,0,0,1,44.8-57.429a24.1,24.1,0,0,1-3.373-13.1,32.514,32.514,0,0,1,5.06-17.857q5.06-7.937,15.377-12.7l1.786,3.571a26.81,26.81,0,0,0-10.615,8.135q-4.464,5.556-4.464,11.31a13.191,13.191,0,0,0,.6,4.167,11.3,11.3,0,0,1,7.341-2.579A12.64,12.64,0,0,1,65.537-73a12.1,12.1,0,0,1,3.671,9.226,12.271,12.271,0,0,1-3.671,9.028A12.271,12.271,0,0,1,56.51-51.08Zm-33.73,0a12.939,12.939,0,0,1-11.706-6.349A24.1,24.1,0,0,1,7.7-70.524a32.514,32.514,0,0,1,5.06-17.857q5.06-7.937,15.377-12.7l1.786,3.571a26.81,26.81,0,0,0-10.615,8.135q-4.464,5.556-4.464,11.31a13.191,13.191,0,0,0,.6,4.167,11.3,11.3,0,0,1,7.341-2.579A12.64,12.64,0,0,1,31.807-73a12.1,12.1,0,0,1,3.671,9.226,12.271,12.271,0,0,1-3.671,9.028A12.271,12.271,0,0,1,22.779-51.08Z" transform="translate(-7.7 101.08)" fill="#dd6836"/>
</svg>
